<?xml version="1.0" standalone="no"?><!DOCTYPE svg PUBLIC "-//W3C//DTD SVG 1.1//EN" "http://www.w3.org/Graphics/SVG/1.1/DTD/svg11.dtd"><svg t="1753254482979" class="icon" viewBox="0 0 1024 1024" version="1.1" xmlns="http://www.w3.org/2000/svg" p-id="9250" xmlns:xlink="http://www.w3.org/1999/xlink" width="200" height="200"><path d="M578.75 363.21c-23.61-19.35-52.89-29.08-83.32-29.68-16.59-0.33-33.38 2.06-49.43 6.16-14.78 3.78-31.13 8.51-43.78 17.29-0.82 0.57-1.61 1.15-2.39 1.75 0.81-4.48-0.74-8.55-3.75-12.36-12.65-16.01-33.83-20.11-53.04-21.26-20-1.19-41.01-2.09-60.17 4.76-7.12 2.54-11.89 9.54-9.78 17.22 1.89 6.88 10.07 12.34 17.22 9.78 6.88-2.46 13.85-3.68 20.91-4.21 0.08 8.15 6.49 13.03 13.99 13.84 2.25 0.24 4.51 0.48 6.76 0.78 0.05 0.01 0.09 0.01 0.14 0.02 0.13 0.02 0.33 0.06 0.68 0.11 1.26 0.2 2.52 0.4 3.77 0.62 4.48 0.82 8.82 1.97 13.14 3.38 0.3 0.1 1.09 0.41 1.25 0.46a44.562 44.562 0 0 1 5.3 2.89c0.19 0.12 1.63 1.12 1.69 1.13 2.64 2.11 5.76 6.51 8 10.17 2.03 3.32 5.29 5.56 8.88 6.45-0.78 1.73-1.55 3.48-2.28 5.25-2.91 6.98 3.14 15.4 9.78 17.22 5.72 1.57 10.52-0.49 13.87-4.32 0.02 1.13 0.16 2.28 0.49 3.46 1.88 6.83 10.09 12.4 17.22 9.78 22.06-8.11 45.13-13.97 68.53-16.44 4.99-0.53 9.99-0.95 15.01-1.02 2.24-0.03 4.48 0 6.72 0.1 1.24 0.06 2.48 0.18 3.71 0.25 0.48 0.05 0.96 0.09 1.44 0.14 2.14 0.34 4.27 0.78 6.37 1.35 1.15 0.31 2.29 0.66 3.42 1.05 0.48 0.17 1.78 0.73 1.86 0.74 1.73 0.84 3.42 1.81 4.99 2.92 0.18 0.15 0.63 0.52 0.88 0.77 1.03 1.02 2.02 2.01 2.98 3.09 5.01 5.67 14.68 5.12 19.8 0 5.63-5.63 5.02-14.12 0-19.8-15.7-17.75-41.26-20.01-63.42-17.97-27.25 2.51-54.04 8.37-79.73 17.82-1.46 0.54-2.82 1.26-4.04 2.14 4.9-9.47 11.74-17.59 22.26-22.68 14.33-6.94 32.11-11.41 48.21-13.61 30.24-4.13 62.68 1.08 86.07 20.26 5.84 4.79 14.08 5.72 19.8 0 4.93-4.94 5.86-14.98-0.01-19.8z" fill="#FFF4B3" p-id="9251"></path><path d="M359.51 398.22c-3.14-1.12-6.29-2.23-9.44-3.32-0.85-3.64-3.04-6.94-6.46-8.77-14.43-7.73-29.67-14.12-45.37-18.76-16.06-4.74-33.4-8.46-50.23-7.46-17.01 1-32.51 6.98-47.32 15.13-13.94 7.68-29.11 15.41-30.75 32.98-0.7 7.54 6.94 14 14 14 7.54 0 12.49-5.5 13.75-12.3 0.28-0.25 0.57-0.5 0.83-0.71 2.5 4.08 6.92 7.03 11.86 6.75 24.6-1.4 49.3-3.57 73.94-3.62 11.02-0.02 22.12 0.46 32.95 2.59 11.92 2.35 23.38 6.42 34.8 10.49 7.12 2.54 15.32-2.87 17.22-9.78 2.13-7.75-2.63-14.67-9.78-17.22zM794.39 396.54c-17.66-11.13-39.49-19.2-60.61-18.43-10.64 0.39-21.45 2.4-31.84 4.65-9.98 2.16-19.14 6.03-26.85 12.84-5.67 5.01-5.11 14.69 0 19.8 5.63 5.63 14.12 5.02 19.8 0 1.38-1.21 3.82-2.6 5.55-3.19 3.42-1.18 6.92-2.04 10.47-2.76 8.17-1.67 16.45-3.29 24.81-3.38 15.38-0.15 31.3 6.31 44.55 14.65 6.4 4.03 15.43 1.35 19.15-5.02 3.93-6.73 1.39-15.12-5.03-19.16z" fill="#FFF4B3" p-id="9252"></path><path d="M647.34 420.61L887.42 171.4c5.6-5.82 5.31-15.11-0.64-20.56l-0.04-0.04c-5.81-5.32-14.81-4.97-20.19 0.78l-251.9 269.04h32.69zM581.77 420.61l263.35-273.66c5.6-5.82 5.31-15.1-0.65-20.56-5.82-5.33-14.86-4.97-20.24 0.82l-272.3 293.4h29.84z" fill="#FF989B" p-id="9253"></path><path d="M317.08 780.64v79.38c0 6 5.25 10.91 11.68 10.91L400 887.75c68.52 16.18 140.27 16.18 208.79 0l71.24-16.82c6.42 0 11.68-4.91 11.68-10.91v-74.15" fill="#FF686E" p-id="9254"></path><path d="M176.52 428.53a303.025 303.025 0 0 0-12.68 91.27C166.36 698.03 323 840.33 513.71 837.63s343.26-149.37 340.74-327.59c-0.45-31.63-5.77-62.12-15.26-90.87l-662.67 9.36z" fill="#FF686E" p-id="9255"></path><path d="M650.31 427.61H598.5l262.93-280.82c7.96-8.51 21.44-9.02 30.03-1.15 4.32 3.96 6.78 9.32 6.97 15.13s-1.94 11.31-5.97 15.49L650.31 427.61z m-19.52-14h13.57l238.02-247.07a7.317 7.317 0 0 0 2.06-5.34c-0.06-2-0.91-3.85-2.39-5.2-3-2.75-7.65-2.57-10.39 0.36L630.79 413.61zM584.75 427.61h-48.86l283.22-305.16c7.96-8.58 21.46-9.13 30.09-1.22 4.28 3.92 6.74 9.28 6.92 15.08 0.18 5.8-1.93 11.31-5.96 15.49L584.75 427.61z m-16.77-14h10.81L840.08 142.1c1.39-1.44 2.12-3.34 2.06-5.34s-0.91-3.85-2.39-5.2c-2.98-2.73-7.63-2.54-10.38 0.42L567.98 413.61z" fill="#7C4924" p-id="9256"></path><path d="M137.25 472.41h683.54c9.01 0 9.02-14 0-14H137.25c-9.01 0-9.03 14 0 14zM146.67 607.48H810.68c9.01 0 9.02-14 0-14H146.67c-9.01 0-9.02 14 0 14z" fill="#EF0021" p-id="9257"></path><path d="M479.12 844.65c-65.43 0-129.3-16.9-184.7-48.88-53.93-31.13-98-75.3-127.42-127.73a7.003 7.003 0 0 1 2.68-9.53 7.003 7.003 0 0 1 9.53 2.68c28.2 50.24 70.46 92.59 122.21 122.46 53.28 30.75 114.73 47.01 177.71 47.01 90.46 0 175.49-32.9 239.41-92.64 63.79-59.62 98.93-138.85 98.93-223.1 0-28.52-4.09-56.78-12.15-84.08H152.93a296.393 296.393 0 0 0-12.15 84.08c0 7.5 0.28 15.07 0.85 22.5 0.29 3.85-2.6 7.22-6.45 7.51-3.86 0.29-7.22-2.6-7.51-6.45-0.59-7.78-0.89-15.71-0.89-23.56 0-31.65 4.81-63 14.29-93.18 0.92-2.92 3.62-4.9 6.68-4.9h662.74c3.06 0 5.76 1.98 6.68 4.9a310.581 310.581 0 0 1 14.29 93.18c0 44.57-9.34 87.81-27.76 128.51-17.78 39.28-43.21 74.54-75.61 104.81-66.52 62.17-154.94 96.41-248.97 96.41z" fill="#7C4924" p-id="9258"></path><path d="M155.75 635.42c-2.77 0-5.4-1.66-6.5-4.39a311.793 311.793 0 0 1-16.51-55.41c-0.75-3.79 1.71-7.48 5.5-8.23 3.79-0.76 7.48 1.71 8.23 5.5 3.58 18 8.88 35.8 15.77 52.92 1.44 3.59-0.3 7.66-3.88 9.11-0.86 0.33-1.74 0.5-2.61 0.5z" fill="#7C4924" p-id="9259"></path><path d="M456.59 572.01h-90.07v-46.06h62.42v14h-48.42v18.06h62.07v-50.13H336.1v64.13H177.81v-78.13h122.16v46.75h-69.8v-14h55.8v-18.75h-94.16v50.13H322.1v-64.13h134.49zM769.35 572.01h-90.07v-46.06h62.42v14h-48.42v18.06h62.07v-50.13H648.86v64.13H490.57v-78.13h122.15v46.75h-69.79v-14h55.79v-18.75h-94.15v50.13h130.29v-64.13h134.49z" fill="#EF0021" p-id="9260"></path><path d="M183.68 421.63c-1.25 0-2.5-0.39-3.58-1.19a5.99 5.99 0 0 1-1.24-8.38c1.13-1.52 28.16-37.32 74.18-43.57 31.36-4.26 63.54 6.27 95.65 31.32 2.61 2.04 3.08 5.81 1.04 8.42-2.04 2.61-5.81 3.08-8.42 1.04-29.42-22.94-58.52-32.67-86.52-28.91-40.97 5.5-66.05 38.52-66.3 38.85a5.949 5.949 0 0 1-4.81 2.42z" fill="#7C4924" p-id="9261"></path><path d="M156.95 419.72a5.92 5.92 0 0 1-3.35-1.03 5.99 5.99 0 0 1-1.62-8.32c1.74-2.58 43.29-63.17 108.45-68.11 41.37-3.14 82.37 16.99 121.85 59.84a5.996 5.996 0 0 1-0.35 8.48 6.005 6.005 0 0 1-8.48-0.35c-36.84-39.98-74.54-58.83-112.04-56.01-59.34 4.46-99.1 62.28-99.49 62.86a5.978 5.978 0 0 1-4.97 2.64zM393.71 420.49c-1.4 0-2.81-0.49-3.95-1.48a6.01 6.01 0 0 1-0.57-8.47c0.79-0.9 19.67-22.23 50.02-34.1 28.3-11.08 72.01-15.61 119.59 25.65a6 6 0 0 1 0.6 8.46 6 6 0 0 1-8.46 0.6c-34.56-29.98-70.67-37.9-107.35-23.54-27.64 10.82-45.18 30.63-45.36 30.83a6.017 6.017 0 0 1-4.52 2.05z" fill="#7C4924" p-id="9262"></path><path d="M377.27 386.67a5.99 5.99 0 0 1-4.98-9.32c0.73-1.1 18.33-27.03 53.63-42.64 20.73-9.17 43.26-12.84 66.98-10.93 29.31 2.37 60.45 13.35 92.57 32.65a5.994 5.994 0 0 1 2.05 8.23 5.994 5.994 0 0 1-8.23 2.05c-30.36-18.24-59.62-28.65-86.95-30.94-21.64-1.81-42.17 1.45-61.03 9.68-32.32 14.11-48.88 38.33-49.04 38.57a6.028 6.028 0 0 1-5 2.65z" fill="#7C4924" p-id="9263"></path><path d="M397.17 354.98c-1.54 0-3.07-0.59-4.25-1.76-22.22-22.25-49.2-29.43-80.19-21.34-23.75 6.2-41.12 19.43-41.29 19.57-2.62 2.02-6.39 1.54-8.41-1.08s-1.54-6.38 1.07-8.41c0.77-0.6 19.19-14.7 45.2-21.58 35.08-9.28 66.93-0.85 92.11 24.37 2.34 2.34 2.34 6.14-0.01 8.49a5.973 5.973 0 0 1-4.23 1.74zM805.9 427.69c-22.7-26.97-51.1-40.29-84.35-39.6-25.17 0.52-43.92 9.27-44.1 9.36l-5.16-10.83c0.84-0.4 20.89-9.83 48.51-10.51 25.65-0.64 62.81 6.46 94.29 43.86l-9.19 7.72zM474.28 906.85c-35.67 0-71.33-4.09-106.01-12.28l-70.54-16.66c-9.88-0.45-17.77-8.3-17.77-17.89v-79.38h14v79.38c0 2.12 2.14 3.91 4.68 3.91h0.82l72.03 17.01c67.24 15.88 138.33 15.88 205.58 0l72.03-17.01h0.82c2.53 0 4.68-1.79 4.68-3.91v-74.15h14v74.15c0 9.59-7.89 17.44-17.77 17.89l-70.54 16.66c-34.67 8.19-70.34 12.28-106.01 12.28z" fill="#7C4924" p-id="9264"></path><path d="M313.73 729.86c1.27 1.33 2.55 2.66 3.82 3.99 1.31 1.37 3.42 2.2 5.3 2.2 1.84 0 4.04-0.82 5.3-2.2 1.31-1.43 2.29-3.31 2.2-5.3-0.09-2.01-0.78-3.83-2.2-5.3-1.27-1.33-2.55-2.66-3.82-3.99-1.31-1.37-3.42-2.2-5.3-2.2-1.84 0-4.04 0.82-5.3 2.2-1.31 1.43-2.29 3.31-2.2 5.3 0.09 2.01 0.78 3.82 2.2 5.3zM234.51 630.87c11.66 30.04 31.26 55.69 57.16 74.85 3.28 2.43 8.34 0.52 10.26-2.69 2.27-3.79 0.55-7.87-2.69-10.26-22.48-16.63-40.15-39.82-50.27-65.88-1.46-3.76-5.04-6.41-9.23-5.24-3.59 1-6.71 5.41-5.23 9.22z" fill="#FFFFFF" p-id="9265"></path></svg>