<?xml version="1.0" standalone="no"?><!DOCTYPE svg PUBLIC "-//W3C//DTD SVG 1.1//EN" "http://www.w3.org/Graphics/SVG/1.1/DTD/svg11.dtd"><svg t="1753254662008" class="icon" viewBox="0 0 1024 1024" version="1.1" xmlns="http://www.w3.org/2000/svg" p-id="23416" xmlns:xlink="http://www.w3.org/1999/xlink" width="200" height="200"><path d="M483.766857 759.417905c-13.872762 0-24.771048-11.166476-24.771047-25.356191v-128.853333c0-14.214095 10.898286-25.35619 24.771047-25.356191 13.897143 0 24.795429 11.142095 24.795429 25.356191v128.828952c0 14.214095-10.922667 25.35619-24.795429 25.356191z m101.10781 218.624c-13.897143 0-24.795429-11.166476-24.795429-25.356191V589.994667c0-14.214095 10.922667-25.35619 24.795429-25.356191s24.771048 11.142095 24.771047 25.356191v362.691047c0 14.189714-10.898286 25.35619-24.771047 25.356191z m238.835809 0c-13.872762 0-24.771048-11.166476-24.771047-25.356191V589.994667c0-14.214095 10.898286-25.35619 24.771047-25.356191 13.897143 0 24.795429 11.142095 24.795429 25.356191v362.691047c0 14.189714-10.898286 25.35619-24.795429 25.356191z m-142.701714-218.624c-13.897143 0-24.771048-11.166476-24.771048-25.356191v-128.853333c0-14.214095 10.898286-25.35619 24.771048-25.356191s24.771048 11.142095 24.771048 25.356191v128.828952c0 14.214095-10.898286 25.35619-24.771048 25.356191z m240.835048 0c-13.897143 0-24.771048-11.166476-24.771048-25.356191v-128.853333c0-14.214095 10.898286-25.35619 24.771048-25.356191s24.771048 11.142095 24.771047 25.356191v128.828952c0 14.214095-10.898286 25.35619-24.771047 25.356191z" fill="#333333" p-id="23417"></path><path d="M146.285714 499.809524a219.428571 219.428571 0 0 1 219.428572 219.428571v24.454095a150.381714 150.381714 0 0 1-204.604953 140.288v-23.527619L146.285714 499.809524z" fill="#E78055" p-id="23418"></path><path d="M666.258286 755.419429H485.912381c-14.189714 0-25.35619-11.190857-25.356191-25.429334 0-14.262857 11.166476-25.453714 25.356191-25.453714h180.345905c14.189714 0 25.35619 11.215238 25.35619 25.453714 0 14.238476-11.166476 25.429333-25.35619 25.429334z m151.478857-202.556953H816.761905c-37.497905 0-72.46019-12.190476-103.375238-36.644571-27.843048 22.918095-66.340571 36.644571-105.350096 36.644571-38.009905 0-72.46019-12.190476-103.375238-36.644571-27.843048 22.918095-66.340571 36.644571-105.350095 36.644571-38.009905 0-72.46019-12.190476-103.375238-36.644571-27.843048 22.918095-66.340571 36.644571-105.350095 36.644571C97.328762 552.862476 24.380952 480.085333 24.380952 387.974095v-27.477333L113.030095 75.995429C136.850286 13.409524 185.490286 13.409524 214.357333 13.409524h591.725715c29.891048 0 80.554667 0 104.350476 57.002666l1.024 2.53562L999.619048 372.711619v15.262476a157.476571 157.476571 0 0 1-47.104 112.469334c-33.962667 34.108952-81.578667 52.419048-134.777905 52.419047z m-106.886095-109.421714l19.748571 19.870476c25.35619 25.429333 54.710857 38.66819 86.137905 38.668191 40.009143 0 75.483429-13.238857 99.791238-37.668572a107.373714 107.373714 0 0 0 31.939048-76.312381v-8.167619L862.841905 88.746667c-9.630476-22.381714-24.33219-24.429714-57.246476-24.429715H214.357333c-27.867429 0-42.032762 0-53.199238 29.013334L75.580952 368.128v19.846095c0 64.121905 50.663619 114.005333 115.492572 114.005334 33.962667 0 66.364952-14.262857 84.601905-36.644572l17.749333-21.894095 19.748571 19.870476c25.35619 25.429333 54.710857 38.66819 86.137905 38.668191 33.938286 0 66.364952-14.262857 84.601905-36.644572l17.724952-21.894095 19.748572 19.870476c25.35619 25.429333 54.735238 38.66819 86.137904 38.668191 33.426286 0 66.364952-14.262857 84.601905-36.644572l18.748953-21.894095z" fill="#333333" p-id="23419"></path><path d="M444.464762 935.643429h-172.422095c-89.965714 0-162.864762-71.338667-162.864762-158.866286V526.311619c0-14.140952 11.068952-25.283048 25.136762-25.283048s25.136762 11.117714 25.136762 25.283048V776.777143c0 59.684571 50.761143 108.251429 112.591238 108.251428h172.422095c14.06781 0 25.112381 11.142095 25.112381 25.307429s-11.53219 25.307429-25.112381 25.307429z" fill="#333333" p-id="23420"></path><path d="M469.577143 231.228952v-23.064381h-75.629714v-11.53219h57.929142v-21.991619h-57.929142v-11.264h68.120381v-22.528h-68.120381v-14.750476h-27.355429v14.750476h-66.243048v22.528h66.243048v11.264H311.344762v21.991619h55.247238v11.53219h-74.825143v23.064381h177.810286z m-196.315429-49.078857l19.846096-19.846095a297.935238 297.935238 0 0 0-40.496762-34.328381l-19.846096 19.309714c17.432381 12.336762 30.841905 24.137143 40.496762 34.864762z m-5.095619 68.656762l19.846095-19.846095a319.902476 319.902476 0 0 0-43.715047-38.887619l-19.846095 19.309714c18.773333 14.214095 33.52381 27.355429 43.715047 39.424z m72.143238 123.367619v-41.837714h80.457143v8.313905c0 5.632-2.413714 8.582095-6.704762 8.582095l-23.600762-1.072762 6.704762 24.405333h24.673524c17.16419 0 25.746286-8.850286 25.746286-26.014476v-104.594286h-133.290667v132.217905h26.014476z m80.457143-96.280381h-80.457143v-13.409524h80.457143v13.409524z m-167.082666 92.793905c12.873143-28.964571 24.137143-60.074667 34.32838-93.062095l-24.673523-9.654857a781.970286 781.970286 0 0 1-35.401143 91.184762l25.746286 11.53219z m167.082666-59.245714h-80.457143v-12.629334h80.457143v12.604953z m352.694857 64.877714l14.214096-21.991619c-18.773333-10.191238-39.15581-18.773333-61.147429-26.282667h63.561143v-24.673524h-33.52381V178.663619h-74.288762c0.804571-3.754667 1.609143-7.777524 2.413715-12.068571h95.475809v-23.868953h-91.452952c0.536381-4.559238 1.340952-9.118476 1.877333-13.945905l-28.42819-4.022857c-0.536381 5.90019-1.340952 12.068571-2.145524 17.968762h-99.230476v23.893334h95.475809c-0.804571 3.730286-1.609143 7.753143-2.681905 12.04419h-65.170285v124.708571h-37.546667v24.673524h67.047619c-16.62781 9.654857-37.278476 17.968762-61.683809 24.673524l11.264 23.600762c30.037333-9.386667 55.783619-21.187048 76.702476-35.401143l-11.532191-12.873143h74.020572l-8.850286 13.165715c25.746286 8.557714 50.95619 20.089905 75.629714 35.108571z m-43.446857-165.473524h-114.785524V200.655238h114.785524v10.191238z m0 30.573714h-114.785524v-9.923047h114.785524v9.923047z m0 30.573715h-114.785524v-10.191238h114.785524v10.191238z m0 31.378285h-114.785524v-10.727619h114.785524v10.727619z" fill="#333333" p-id="23421"></path></svg>