<?xml version="1.0" standalone="no"?><!DOCTYPE svg PUBLIC "-//W3C//DTD SVG 1.1//EN" "http://www.w3.org/Graphics/SVG/1.1/DTD/svg11.dtd"><svg t="1753254496724" class="icon" viewBox="0 0 1024 1024" version="1.1" xmlns="http://www.w3.org/2000/svg" p-id="10621" xmlns:xlink="http://www.w3.org/1999/xlink" width="200" height="200"><path d="M633.6512 434.9952l-56.7296-254.1568h-47.616l49.8688 254.1568z" fill="#FFA43E" p-id="10622"></path><path d="M579.1744 434.9952l-49.8688-254.1568h-82.2272l-56.7296 254.1568H59.4944c-21.504 0-39.0144 17.408-39.0144 39.0144S37.888 513.024 59.4944 513.024h54.8864v-0.1024C148.6848 641.8432 266.24 736.768 405.9136 736.768h212.2752c6.656 0 13.312-0.2048 19.8656-0.6144 124.1088-58.88 149.7088-232.0384 155.0336-301.056l-213.9136-0.1024z" fill="#FFD14F" p-id="10623"></path><path d="M425.3696 434.9952L306.7904 316.416c-21.8112-21.8112-57.9584-0.2048-70.144 26.3168" fill="#F06661" p-id="10624"></path><path d="M273.408 378.5728c17.2032-12.6976 32.1536-35.84 21.9136-46.08-13.5168-13.5168-40.1408 7.5776-41.984 25.3952M330.24 434.4832c13.0048-25.7024 20.5824-74.1376 6.5536-88.1664M364.8512 434.4832c6.3488-24.4736 7.4752-52.5312-2.6624-62.7712M327.5776 434.4832L209.5104 316.416c-32.768-32.768-98.2016 32.5632-65.3312 65.3312l53.248 53.248" fill="#F06661" p-id="10625"></path><path d="M146.432 384c16.9984 16.9984 68.5056-34.6112 51.6096-51.6096-16.9984-16.9984-54.6816 20.7872-37.7856 37.7856M232.8576 434.4832c13.0048-25.7024 20.5824-74.1376 6.5536-88.1664M267.5712 434.4832c6.3488-24.4736 7.4752-52.5312-2.6624-62.7712M273.408 378.5728c17.2032-12.6976 32.1536-35.84 21.9136-46.08-13.5168-13.5168-40.1408 7.5776-41.984 25.3952M330.24 434.4832c13.0048-25.7024 20.5824-74.1376 6.5536-88.1664M364.8512 434.4832c6.3488-24.4736 7.4752-52.5312-2.6624-62.7712" fill="#F06661" p-id="10626"></path><path d="M209.5104 316.416l26.8288 26.8288 0.2048-0.512c12.1856-26.5216 48.4352-48.128 70.144-26.3168l118.5792 118.5792H197.3248l-53.248-53.248c-32.768-32.768 32.6656-98.2016 65.4336-65.3312z" fill="#F06661" p-id="10627"></path><path d="M160.256 370.176c-16.9984-16.9984 20.7872-54.6816 37.7856-37.7856 9.216 9.216-1.8432 28.7744-16.5888 41.8816-11.4688 12.5952-21.1968-4.096-21.1968-4.096zM258.048 370.176c-16.9984-16.9984 20.7872-54.6816 37.7856-37.7856 9.216 9.216-1.8432 28.7744-16.5888 41.8816-11.3664 12.5952-21.1968-4.096-21.1968-4.096z" fill="#E01E22" p-id="10628"></path><path d="M232.8576 434.4832c13.0048-25.7024 20.5824-74.1376 6.5536-88.1664l25.4976 25.4976c10.1376 10.1376 9.0112 38.1952 2.6624 62.7712l-34.7136-0.1024zM330.24 434.4832c13.0048-25.7024 20.5824-74.1376 6.5536-88.1664l25.4976 25.4976c10.1376 10.1376 9.0112 38.1952 2.6624 62.7712l-34.7136-0.1024z" fill="#FFCACA" p-id="10629"></path><path d="M771.9936 434.9952c2.2528-25.7024 23.8592-45.9776 50.176-45.9776s47.9232 20.1728 50.176 45.8752" fill="#8B5526" p-id="10630"></path><path d="M743.8336 405.504c4.7104-1.4336 9.728-2.2528 14.848-2.2528 8.3968 0 16.384 2.048 23.3472 5.7344v26.0096H738.304l5.5296-29.4912z" fill="#FB8D3A" p-id="10631"></path><path d="M793.088 434.9952h171.4176c21.504 0 39.0144 17.408 39.0144 39.0144S986.112 513.024 964.5056 513.024h-54.784v-0.1024c-32.6656 122.6752-140.8 214.6304-271.6672 223.232 124.1088-58.9824 149.7088-232.1408 155.0336-301.1584zM679.6288 823.3984c0-16.9984-13.824-30.8224-30.8224-30.8224h42.5984c16.9984 0 30.8224 13.824 30.8224 30.8224s-13.824 30.8224-30.8224 30.8224h-42.7008c17.2032 0 30.9248-13.7216 30.9248-30.8224z" fill="#FFA43E" p-id="10632"></path><path d="M332.4928 792.576h316.3136c16.9984 0 30.8224 13.824 30.8224 30.8224s-13.824 30.8224-30.8224 30.8224H332.4928c-16.9984 0-30.8224-13.824-30.8224-30.8224s13.824-30.8224 30.8224-30.8224z" fill="#FFD14F" p-id="10633"></path><path d="M636.7232 736.6656l7.4752 55.9104h-55.6032v-55.9104z" fill="#FFA43E" p-id="10634"></path><path d="M387.2768 736.6656h201.3184V792.576H379.8016z" fill="#FFD14F" p-id="10635"></path><path d="M693.76 368.5376c-20.2752 0.6144-37.5808 13.2096-44.9536 30.9248l-4.5056 35.0208h80.896c-1.2288-44.8512-24.2688-61.8496-31.4368-65.9456z" fill="#C8A981" p-id="10636"></path><path d="M695.296 368.5376h-1.536c7.0656 4.1984 30.208 21.1968 31.4368 66.048h17.92c1.6384-4.9152 2.4576-10.24 2.4576-15.6672 0.1024-27.8528-22.4256-50.3808-50.2784-50.3808z" fill="#BC9264" p-id="10637"></path><path d="M821.5552 389.12c-26.0096 0.3072-47.3088 20.3776-49.5616 45.9776h73.5232c-4.096-25.4976-15.872-39.3216-23.9616-45.9776z" fill="#8B5526" p-id="10638"></path><path d="M822.1696 389.0176h-0.6144c8.0896 6.656 19.8656 20.48 23.9616 45.8752h26.8288c-2.2528-25.7024-23.8592-45.8752-50.176-45.8752z" fill="#7C4115" p-id="10639"></path><path d="M421.7856 365.6704c22.016-12.288 48.8448-7.5776 65.536 9.728 1.9456-1.6384 3.9936-3.072 6.2464-4.3008 11.8784-6.656 25.8048-6.4512 37.1712-0.7168-0.6144-5.0176-2.1504-10.0352-4.7104-14.7456-10.6496-19.0464-34.7136-25.9072-53.76-15.2576-2.2528 1.2288-4.3008 2.7648-6.2464 4.3008-16.6912-17.408-43.52-22.016-65.536-9.728-17.7152 9.9328-27.7504 28.2624-27.7504 47.2064l22.1184 22.1184c2.4576-15.7696 11.8784-30.208 26.9312-38.6048zM595.1488 384.2048c-2.2528 1.2288-4.3008 2.7648-6.2464 4.3008-13.5168-14.1312-33.792-19.8656-52.736-14.9504-39.7312 4.4032-40.96 57.4464-40.96 57.4464l151.8592-0.3072 9.216-14.2336s-4.608-12.3904-7.2704-16.9984c-10.752-19.0464-34.816-25.8048-53.8624-15.2576z" fill="#68E077" p-id="10640"></path><path d="M616.5504 414.9248c-2.2528 1.2288-4.3008 2.7648-6.2464 4.3008-14.4384-15.0528-32.5632-21.1968-56.4224-13.824-23.8592 7.3728-29.4912 24.6784-29.4912 24.6784l-29.184 0.9216s-3.7888-19.1488 10.5472-36.864 25.2928-19.6608 25.2928-19.6608c0-1.4336-0.1024-2.7648-0.3072-4.1984-11.3664-5.7344-25.1904-5.9392-37.1712 0.7168-2.2528 1.2288-4.3008 2.7648-6.2464 4.3008-16.6912-17.408-43.52-22.016-65.536-9.728-15.0528 8.3968-24.4736 22.8352-27.0336 38.6048l30.72 30.72 225.28-0.4096c2.7648-6.3488 3.7888-13.312 2.9696-20.2752-11.3664-5.7344-25.2928-5.9392-37.1712 0.7168z" fill="#3EBA4A" p-id="10641"></path><path d="M248.1152 512.9216c-19.968 5.3248-35.5328 20.992-40.96 40.96-5.3248-19.968-20.992-35.5328-40.96-40.96 19.968-5.3248 35.5328-20.992 40.96-40.96 5.3248 20.0704 20.992 35.6352 40.96 40.96zM285.184 553.8816c-9.9328 2.6624-17.6128 10.4448-20.2752 20.2752-2.6624-9.9328-10.3424-17.6128-20.2752-20.2752 9.9328-2.6624 17.6128-10.4448 20.2752-20.2752 2.56 9.9328 10.3424 17.6128 20.2752 20.2752z" fill="#FFFFFF" p-id="10642"></path><path d="M964.5056 424.7552h-83.5584c-2.8672-11.3664-8.9088-21.8112-17.7152-29.9008-11.264-10.3424-25.8048-15.9744-41.0624-15.9744s-29.7984 5.7344-41.0624 16.0768c-0.6144 0.6144-1.2288 1.2288-1.8432 1.7408-6.5536-2.3552-13.5168-3.584-20.5824-3.584-2.7648 0-5.632 0.2048-8.2944 0.6144-9.6256-20.7872-30.6176-35.328-55.0912-35.328-19.0464 0-36.5568 8.8064-47.8208 23.3472-5.0176-4.5056-10.9568-7.8848-17.5104-10.0352L614.4 301.7728c-1.2288-5.5296-6.656-9.0112-12.1856-7.7824s-9.0112 6.656-7.7824 12.1856l14.1312 63.0784c-6.3488 0.7168-12.5952 2.7648-18.432 5.9392-0.1024 0.1024-0.3072 0.2048-0.4096 0.2048-14.2336-11.264-32.4608-15.872-50.0736-13.0048-1.024-4.096-2.6624-8.0896-4.7104-11.8784-13.4144-23.9616-43.7248-32.5632-67.6864-19.2512-0.1024 0.1024-0.3072 0.2048-0.4096 0.2048-11.4688-9.1136-25.4976-13.824-39.7312-13.824l28.3648-126.7712h113.3568l17.2032 76.9024c1.2288 5.5296 6.656 9.0112 12.1856 7.7824s9.0112-6.656 7.7824-12.1856l-18.944-84.8896c-1.024-4.7104-5.2224-7.9872-10.0352-7.9872H447.0784c-4.8128 0-8.9088 3.2768-10.0352 7.9872L405.1968 321.536c-3.3792 1.2288-6.656 2.6624-9.728 4.4032-13.9264 7.7824-24.2688 20.3776-29.3888 35.0208l-51.9168-51.9168c-9.728-9.728-22.9376-13.7216-36.9664-11.1616-15.9744 2.8672-32.1536 14.0288-42.8032 28.672l-17.5104-17.5104c-10.0352-10.0352-23.4496-13.9264-37.888-11.0592-11.8784 2.3552-23.8592 9.1136-33.8944 19.1488-19.8656 19.8656-28.9792 50.8928-8.0896 71.7824l35.7376 35.7376H59.4944c-27.136 0-49.2544 22.1184-49.2544 49.2544s22.1184 49.2544 49.2544 49.2544H106.496c14.5408 49.4592 41.2672 94.8224 78.7456 132.3008 51.8144 51.8144 118.5792 83.0464 190.464 89.9072l-4.9152 36.864h-38.2976c-22.6304 0-41.0624 18.432-41.0624 41.0624s18.432 41.0624 41.0624 41.0624h251.392c5.632 0 10.24-4.608 10.24-10.24s-4.608-10.24-10.24-10.24H332.4928c-11.3664 0-20.5824-9.216-20.5824-20.5824s9.216-20.5824 20.5824-20.5824H691.5072c11.3664 0 20.5824 9.216 20.5824 20.5824s-9.216 20.5824-20.5824 20.5824h-70.3488c-5.632 0-10.24 4.608-10.24 10.24s4.608 10.24 10.24 10.24h70.3488c22.6304 0 41.0624-18.432 41.0624-41.0624s-18.432-41.0624-41.0624-41.0624h-38.2976l-4.9152-36.864c71.9872-6.8608 138.752-38.1952 190.464-89.9072 37.4784-37.4784 64.2048-82.8416 78.7456-132.3008h47.0016c27.136 0 49.2544-22.1184 49.2544-49.2544s-22.1184-49.152-49.2544-49.152z m-142.336-25.4976c16.6912 0 31.4368 10.5472 37.2736 25.4976h-74.6496c5.9392-14.9504 20.6848-25.4976 37.376-25.4976z m-66.56 25.4976c0.2048-1.9456 0.3072-3.8912 0.3072-5.9392 0-1.7408-0.1024-3.4816-0.2048-5.2224 1.024-0.1024 2.048-0.1024 3.072-0.1024 2.8672 0 5.632 0.3072 8.2944 0.8192-1.536 3.3792-2.7648 6.8608-3.584 10.3424h-7.8848zM660.2752 399.36c7.0656-12.6976 20.2752-20.6848 35.0208-20.6848 22.1184 0 40.1408 18.0224 40.1408 40.1408 0 1.9456-0.1024 3.9936-0.4096 5.9392h-71.168c1.024-8.6016-0.2048-17.3056-3.584-25.3952z m-78.848-3.6864c3.7888 3.8912 9.8304 4.1984 14.0288 0.7168 1.4336-1.2288 2.9696-2.2528 4.608-3.1744 6.8608-3.7888 14.7456-4.7104 22.3232-2.56 7.168 2.048 13.2096 6.656 17.1008 13.1072 0.2048 0.512 0.512 1.1264 0.9216 1.536 3.1744 6.0416 4.096 12.9024 2.7648 19.456H505.856c0.512-15.1552 8.9088-29.3888 22.528-36.9664 17.408-9.8304 39.2192-6.5536 53.0432 7.8848z m-176.0256-51.8144c17.5104-9.728 39.3216-6.4512 53.1456 7.8848 3.7888 3.8912 9.8304 4.1984 14.0288 0.7168 1.4336-1.2288 3.072-2.2528 4.608-3.1744 14.1312-7.8848 31.9488-2.7648 39.8336 11.264 1.4336 2.56 2.4576 5.4272 3.072 8.2944-0.6144 0.3072-1.1264 0.6144-1.7408 0.9216-20.0704 11.264-32.4608 32.3584-32.9728 54.8864h-55.7056l-46.592-46.592c1.3312-14.2336 9.6256-27.136 22.3232-34.2016zM277.504 369.8688l-18.1248-18.1248c3.584-7.7824 11.3664-15.4624 19.5584-18.3296 3.8912-1.3312 9.4208-2.1504 13.5168 1.9456 1.6384 1.6384 2.3552 3.8912 2.1504 6.8608-0.7168 7.7824-7.5776 18.7392-17.1008 27.648z m-9.8304 19.1488c1.3312 9.4208 0.7168 22.016-2.048 35.7376h-24.064c5.8368-15.872 9.728-35.7376 9.4208-52.4288l16.6912 16.6912z m8.8064 8.8064l26.9312 26.9312h-29.4912c1.6384-8.9088 2.6624-18.2272 2.56-26.9312z m88.4736-8.8064c1.3312 9.4208 0.7168 22.016-2.048 35.7376h-24.064c5.8368-15.7696 9.728-35.7376 9.4208-52.4288l16.6912 16.6912z m8.8064 8.8064l26.9312 26.9312h-29.3888c1.536-8.9088 2.56-18.2272 2.4576-26.9312z m-93.0816-79.7696c7.4752-1.3312 13.9264 0.512 18.944 5.5296l39.8336 39.8336c2.2528 16.1792-1.536 40.7552-8.704 59.5968l-47.4112-47.4112c9.728-9.216 18.6368-21.7088 19.456-32.8704 0.4096-5.3248-1.2288-9.9328-4.5056-13.2096-5.632-5.632-13.4144-6.9632-22.016-3.8912-9.3184 3.2768-18.0224 11.1616-22.9376 19.968l-4.1984-4.1984c7.2704-11.776 19.7632-21.1968 31.5392-23.3472z m-114.688 71.0656c7.0656-2.8672 14.848-8.2944 21.8112-15.2576 7.168-7.168 12.5952-15.0528 15.4624-22.3232 3.584-9.1136 2.6624-16.896-2.3552-22.016-10.752-10.752-26.9312-4.3008-37.376 6.144-5.4272 5.4272-9.3184 11.8784-10.8544 18.0224-1.9456 7.5776-0.2048 14.4384 4.7104 19.3536 1.6384 1.6384 4.1984 1.6384 5.8368 0 1.6384-1.6384 1.6384-4.1984 0-5.8368-2.8672-2.8672-3.7888-6.7584-2.56-11.5712 1.1264-4.7104 4.3008-9.9328 8.704-14.2336 7.9872-7.9872 19.3536-12.5952 25.8048-6.144 6.3488 6.3488-1.9456 21.6064-13.1072 32.768-6.2464 6.2464-13.4144 11.264-19.456 13.6192-0.9216 0.4096-1.9456 0.7168-2.9696 1.024l-8.192-8.192c-11.9808-11.8784-4.1984-30.5152 8.0896-42.8032 12.288-12.288 30.9248-19.968 42.8032-8.0896l39.8336 39.8336c2.3552 16.6912-1.8432 42.1888-9.3184 61.2352H201.728L165.9904 389.12z m-106.496 113.5616c-15.872 0-28.7744-12.9024-28.7744-28.7744s12.9024-28.7744 28.7744-28.7744h34.6112c0.6144 19.5584 3.072 38.8096 7.168 57.5488H59.4944zM632.5248 782.336H391.4752l4.8128-35.6352c3.1744 0.1024 6.3488 0.2048 9.6256 0.2048h212.2752c3.1744 0 6.4512-0.1024 9.6256-0.2048l4.7104 35.6352z m-14.336-55.9104H405.8112c-157.2864 0-285.9008-125.2352-291.328-281.2928H909.4144c-5.3248 156.0576-133.9392 281.2928-291.2256 281.2928z m346.3168-223.744h-41.7792c4.096-18.7392 6.5536-37.9904 7.168-57.5488h34.6112c15.872 0 28.7744 12.9024 28.7744 28.7744s-12.9024 28.7744-28.7744 28.7744z" p-id="10643"></path></svg>