<?xml version="1.0" standalone="no"?><!DOCTYPE svg PUBLIC "-//W3C//DTD SVG 1.1//EN" "http://www.w3.org/Graphics/SVG/1.1/DTD/svg11.dtd"><svg t="1753254568990" class="icon" viewBox="0 0 1024 1024" version="1.1" xmlns="http://www.w3.org/2000/svg" p-id="14937" xmlns:xlink="http://www.w3.org/1999/xlink" width="200" height="200"><path d="M333.1072 368.2304l7.168 136.8064 178.7904 87.7568V368.2304z" fill="#8B5526" p-id="14938"></path><path d="M519.0656 368.2304v224.5632l12.3904 6.0416 41.7792-171.6224 3.072-58.9824z" fill="#7C4115" p-id="14939"></path><path d="M237.8752 532.6848s37.888 11.0592 42.5984 29.5936c16.384-25.1904 12.6976-53.248 6.0416-73.5232-27.9552-14.1312-60.2112-15.872-88.1664-1.7408-19.6608 9.9328-34.4064 26.2144-43.1104 45.6704l0.512 0.3072c-8.704 3.584-17.2032 8.192-25.2928 13.824-51.8144 36.4544-67.584 103.2192-35.328 149.0944 2.9696 4.1984 6.2464 8.0896 9.728 11.5712l141.0048 1.536c57.2416-90.3168-7.9872-176.3328-7.9872-176.3328z" fill="#FFB874" p-id="14940"></path><path d="M353.3824 586.3424c-1.6384-14.336-3.072-29.4912-20.3776-57.2416-17.3056-27.7504-33.6896-33.8944-46.592-40.448 6.656 20.2752 10.24 48.3328-6.0416 73.5232-4.608-18.5344-42.5984-29.5936-42.5984-29.5936s65.3312 86.016 7.9872 176.4352l45.056 0.6144 62.5664-123.2896z" fill="#FF9640" p-id="14941"></path><path d="M78.2336 707.584h697.5488c15.1552 0 27.5456 12.288 27.5456 27.5456 0 15.1552-12.288 27.5456-27.5456 27.5456H78.2336c-15.1552 0-27.5456-12.288-27.5456-27.5456 0.1024-15.1552 12.3904-27.5456 27.5456-27.5456zM127.3856 762.6752h599.3472l-40.2432 37.4784c-11.9808 11.1616-27.7504 17.3056-44.032 17.3056H211.6608c-16.384 0-32.0512-6.144-44.032-17.3056l-40.2432-37.4784z" fill="#76CEFF" p-id="14942"></path><path d="M715.264 737.0752h2.4576l-1.9456-2.048h-0.6144c0.1024 0.7168 0.1024 1.3312 0.1024 2.048zM329.8304 817.4592h-3.2768l10.8544 10.0352c11.9808 11.1616 27.7504 17.3056 44.032 17.3056h3.2768c-16.384 0-32.0512-6.144-44.032-17.3056l-10.8544-10.0352zM945.664 735.0272h-76.0832c35.84-20.3776 60.0064-58.88 60.0064-103.1168V509.44h-53.76l1.6384 99.2256c0.6144 41.3696-16.6912 80.896-47.4112 108.3392-1.024 0.9216-2.048 1.7408-3.072 2.6624l-19.2512 16.2816 49.7664 0.2048c15.1552 0 27.5456 13.312 27.5456 28.4672s-12.288 27.5456-27.5456 27.5456h-21.8112L797.696 827.5968c-11.9808 11.1616-27.7504 17.3056-44.032 17.3056h58.5728c16.384 0 32.0512-6.144 44.032-17.3056l40.2432-37.4784h49.0496c15.1552 0 27.5456-12.288 27.5456-27.5456 0-15.2576-12.288-27.5456-27.4432-27.5456z" fill="#76CEFF" p-id="14943"></path><path d="M857.6 737.0752h-51.2l20.5824-17.408c1.024-0.8192 2.048-1.7408 3.072-2.6624 30.72-27.4432 48.0256-66.9696 47.4112-108.3392l-1.6384-99.2256H500.9408v6.3488l190.1568 194.1504c-1.1264-0.1024-2.1504-0.2048-3.2768-0.2048H76.5952C61.44 709.632 49.152 721.92 49.152 737.1776c0 15.1552 12.288 27.5456 27.5456 27.5456h56.1152l38.0928 35.4304c11.9808 11.1616 27.7504 17.3056 44.032 17.3056h114.9952l10.8544 10.0352c11.9808 11.1616 27.7504 17.3056 44.032 17.3056H753.664c16.384 0 32.1536-6.144 44.032-17.3056l38.0928-35.4304h21.8112c15.1552 0 27.5456-12.288 27.5456-27.5456-0.1024-15.1552-12.3904-27.4432-27.5456-27.4432z" fill="#CAEAFF" p-id="14944"></path><path d="M827.0848 404.8896c0-56.2176-45.568-101.7856-101.7856-101.7856-6.656 0-13.1072 0.6144-19.456 1.8432 46.8992 9.1136 82.432 50.3808 82.432 99.9424l-90.5216 60.3136 17.5104 14.2336 111.8208-74.5472z" fill="#3EBA4A" p-id="14945"></path><path d="M705.8432 304.9472c-46.8992 9.1136-82.432 50.3808-82.432 99.9424l74.24 60.3136 90.5216-60.3136c0.1024-49.5616-35.328-90.9312-82.3296-99.9424z" fill="#68E077" p-id="14946"></path><path d="M800.3584 407.552c-6.656 0-13.1072 0.6144-19.456 1.8432 46.8992 9.1136 82.432 50.3808 82.432 99.9424H902.144c0.1024-56.1152-45.568-101.7856-101.7856-101.7856z" fill="#7C4115" p-id="14947"></path><path d="M781.0048 409.4976c-25.9072 5.0176-48.3328 19.8656-63.1808 40.448l-12.8 59.4944h158.4128c-0.1024-49.664-35.5328-90.9312-82.432-99.9424z" fill="#8B5526" p-id="14948"></path><path d="M633.344 407.552c-6.656 0-13.1072 0.6144-19.456 1.8432 46.8992 9.1136 82.432 50.3808 82.432 99.9424h38.8096c0-56.1152-45.568-101.7856-101.7856-101.7856z" fill="#FFEEC7" p-id="14949"></path><path d="M613.888 409.4976c-46.8992 9.1136-82.432 50.3808-82.432 99.9424h164.7616c0-49.664-35.4304-90.9312-82.3296-99.9424z" fill="#FDF7E5" p-id="14950"></path><path d="M725.2992 249.5488c-4.096 0-8.0896 0.8192-11.6736 2.2528 11.4688 4.608 19.456 15.872 19.456 28.8768 0 9.1136-3.8912 17.3056-10.1376 23.04l-18.3296 0.3072 0.4096 0.4096 41.2672-0.7168c6.2464-5.7344 10.1376-13.9264 10.1376-23.04 0.1024-17.2032-13.9264-31.1296-31.1296-31.1296z" fill="#E01E22" p-id="14951"></path><path d="M733.0816 280.6784c0-13.1072-8.0896-24.2688-19.456-28.8768-11.4688 4.608-19.456 15.872-19.456 28.8768 0 9.3184 4.096 17.6128 10.5472 23.3472l18.3296-0.3072c6.144-5.632 10.1376-13.824 10.0352-23.04z" fill="#F06661" p-id="14952"></path><path d="M682.496 198.5536c-4.3008-4.1984-8.9088-7.7824-13.9264-10.6496 9.5232 16.1792 11.5712 35.6352 6.2464 53.1456-17.408 5.3248-36.4544 3.3792-52.5312-5.8368 2.7648 4.7104 6.2464 9.216 10.24 13.312 18.0224 18.0224 43.7248 23.4496 66.4576 16.4864 6.9632-22.7328 1.4336-48.4352-16.4864-66.4576z" fill="#3EBA4A" p-id="14953"></path><path d="M674.816 241.0496c5.4272-17.6128 3.2768-36.9664-6.2464-53.1456-16.0768-9.216-35.2256-11.1616-52.5312-5.8368-5.4272 17.6128-3.2768 36.9664 6.2464 53.1456 16.0768 9.216 35.1232 11.1616 52.5312 5.8368z" fill="#68E077" p-id="14954"></path><path d="M580.9152 281.3952H328.4992l4.608 86.8352h243.2z" fill="#FFFFFF" p-id="14955"></path><path d="M792.064 651.1616c-7.5776-12.1856-19.6608-21.1968-33.9968-24.576 2.3552-4.1984 4.3008-8.704 5.4272-13.5168 1.1264-4.4032 1.7408-8.9088 1.7408-13.6192 0-10.6496-3.072-20.48-8.2944-28.8768-9.728-15.6672-26.9312-26.112-46.6944-26.112-7.68 0-14.9504 1.536-21.6064 4.4032-4.5056-8.4992-13.4144-14.2336-23.7568-14.2336-9.3184 0-17.6128 4.8128-22.4256 12.0832-2.9696-11.5712-13.4144-20.1728-26.0096-20.1728-9.8304 0-18.432 5.3248-23.1424 13.2096-3.584-10.5472-13.6192-18.1248-25.3952-18.1248-10.1376 0-19.0464 5.632-23.552 13.9264-4.096-13.0048-16.2816-22.528-30.72-22.528-12.3904 0-23.04 6.9632-28.4672 17.2032-5.4272-10.24-16.0768-17.2032-28.4672-17.2032-14.1312 0-26.112 9.1136-30.4128 21.8112-1.536-0.1024-3.1744-0.2048-4.8128-0.2048-35.84 0-64.8192 28.9792-64.8192 64.8192v1.024l-0.3072-0.6144c-5.3248-3.7888-11.776-6.0416-18.8416-6.0416-14.1312 0-26.112 9.1136-30.4128 21.8112-1.536-0.1024-3.1744-0.2048-4.8128-0.2048-35.84 0-64.8192 28.9792-64.8192 64.8192 0 23.1424 12.1856 43.52 30.4128 54.9888h477.0816c25.6 0 47.104-17.6128 53.248-41.3696 1.1264-4.4032 1.7408-8.9088 1.7408-13.6192 0.4096-10.8544-2.6624-20.7872-7.8848-29.0816z" fill="#FFD14F" p-id="14956"></path><path d="M373.8624 515.6864c28.2624 8.6016 36.352-14.5408 38.6048-26.112-4.096-3.8912-9.3184-6.144-14.7456-6.7584 1.6384-6.9632 0.4096-14.4384-3.9936-20.7872-8.192-11.5712-24.1664-14.336-35.84-6.2464-11.5712 8.192-14.336 24.1664-6.2464 35.84 0.9216 1.3312 1.9456 2.56 3.072 3.584l-81.2032 57.2416 16.6912 23.7568 80.384-56.6272c1.024-1.536 2.1504-2.8672 3.2768-3.8912z" fill="#FDF7E5" p-id="14957"></path><path d="M415.8464 493.568c-1.024-1.4336-2.1504-2.7648-3.4816-3.9936-2.2528 11.5712-10.3424 34.7136-38.6048 26.112-1.1264 1.024-2.1504 2.3552-3.1744 3.8912l0.8192-0.6144c0.6144 1.4336 1.4336 2.7648 2.3552 4.096 8.192 11.5712 24.1664 14.336 35.84 6.2464 11.6736-8.0896 14.4384-24.064 6.2464-35.7376z" fill="#FFEEC7" p-id="14958"></path><path d="M169.5744 397.824l-8.3968-4.608s-7.5776-10.3424 3.3792-19.7632c6.5536-5.632 6.2464-19.2512 4.9152-29.3888-6.656-2.6624-14.336-2.56-21.1968 0.9216-6.8608 3.4816-11.4688 9.5232-13.312 16.384-6.5536-2.6624-14.2336-2.56-21.0944 0.9216-12.6976 6.3488-17.8176 21.8112-11.3664 34.5088s21.8112 17.8176 34.5088 11.3664c1.4336-0.7168 2.7648-1.536 3.9936-2.56l44.6464 88.6784 25.9072-13.1072-41.984-83.3536z" fill="#FDF7E5" p-id="14959"></path><path d="M164.5568 373.4528c-10.9568 9.4208-3.3792 19.7632-3.3792 19.7632l8.3968 4.608-2.6624-5.2224c1.536-0.4096 2.9696-1.024 4.4032-1.7408 12.6976-6.3488 17.8176-21.8112 11.3664-34.5088-2.9696-5.8368-7.7824-10.0352-13.312-12.288 1.4336 10.1376 1.7408 23.7568-4.8128 29.3888z" fill="#FFEEC7" p-id="14960"></path><path d="M772.9152 642.9696l-6.8608 21.9136c-5.632 17.92-22.3232 30.1056-41.0624 30.1056H244.0192l20.992 40.0384h497.4592s37.1712-16.896 37.1712-45.9776c-0.1024-47.7184-26.7264-46.08-26.7264-46.08z" fill="#FFA43E" p-id="14961"></path><path d="M810.1888 596.1728c12.9024-4.096 25.4976-15.6672 34.4064-25.2928-4.608-1.2288-9.5232-2.2528-14.848-3.072 24.064-22.4256 36.5568-47.2064 27.8528-57.4464-9.4208-11.264-40.1408-1.024-68.608 22.8352-14.6432 12.1856-25.8048 25.6-31.9488 37.376 5.2224 8.3968 8.2944 23.2448 8.2944 23.2448s21.0944 9.8304 44.8512 2.3552z" fill="#FF9A4E" p-id="14962"></path><path d="M844.5952 570.7776c-8.9088 9.728-21.504 21.1968-34.4064 25.2928-23.7568 7.5776-44.8512-2.4576-44.8512-2.4576l8.6016 22.1184c49.664 12.1856 96.3584-31.1296 96.3584-31.1296-4.4032-5.632-13.6192-10.4448-25.7024-13.824z" fill="#EF7700" p-id="14963"></path><path d="M864.768 648.3968c24.064-22.4256 36.5568-47.2064 27.8528-57.4464-3.7888-4.608-49.8688-15.7696-100.6592 60.2112 4.096 6.656 6.9632 14.2336 7.8848 22.4256 34.6112-0.9216 67.1744-13.7216 83.0464-21.0944-5.3248-1.7408-11.4688-3.072-18.1248-4.096z" fill="#FF9A4E" p-id="14964"></path><path d="M883.0976 652.4928c-15.872 7.3728-48.4352 20.1728-83.0464 21.0944 0.2048 2.1504 0.4096 4.3008 0.4096 6.4512 0 4.7104-0.6144 9.3184-1.7408 13.6192 11.5712 3.6864 26.3168 5.9392 42.496 5.9392 37.1712 0 67.3792-11.8784 67.3792-26.4192-0.2048-8.3968-10.1376-15.7696-25.4976-20.6848z" fill="#EF7700" p-id="14965"></path><path d="M945.664 724.7872h-45.4656c24.9856-23.9616 39.6288-57.4464 39.6288-92.8768V509.44c0-5.632-4.608-10.24-10.24-10.24h-17.7152c-3.9936-44.3392-33.9968-81.3056-74.6496-95.5392-0.512-48.2304-31.744-89.2928-74.9568-104.448 2.8672-5.632 4.3008-11.9808 4.3008-18.432 0-22.8352-18.6368-41.472-41.472-41.472-4.608 0-9.1136 0.8192-13.2096 2.1504-1.024-18.6368-8.704-36.4544-22.3232-50.176-20.0704-20.0704-49.4592-27.4432-76.6976-19.0464-3.2768 1.024-5.8368 3.584-6.7584 6.7584-8.2944 27.2384-1.024 56.6272 19.0464 76.6976 14.6432 14.6432 34.0992 22.4256 54.1696 22.4256 1.536 0 2.9696-0.1024 4.5056-0.1024-0.1024 0.9216-0.1024 1.7408-0.1024 2.6624 0 6.4512 1.536 12.8 4.3008 18.432-41.8816 14.7456-72.4992 53.6576-74.8544 99.9424-10.24 1.8432-19.8656 5.0176-28.9792 9.4208l6.656-126.5664c0.2048-2.7648-0.8192-5.5296-2.7648-7.5776-1.9456-2.048-4.608-3.1744-7.3728-3.1744H328.4992c-2.7648 0-5.5296 1.1264-7.3728 3.1744s-2.9696 4.8128-2.7648 7.5776l11.5712 218.4192-5.2224 3.6864c-16.5888-16.6912-37.2736-28.672-59.0848-33.9968-16.4864-3.9936-32.8704-4.1984-48.4352-0.7168l-36.4544-72.2944c14.1312-10.1376 19.2512-29.3888 11.1616-45.3632-8.9088-17.7152-30.5152-24.8832-48.2304-15.9744-6.144 3.072-11.264 7.8848-14.6432 13.6192-6.7584-0.7168-13.5168 0.6144-19.7632 3.6864-8.6016 4.3008-14.9504 11.6736-17.92 20.7872-2.9696 9.1136-2.2528 18.8416 2.048 27.4432 4.3008 8.6016 11.6736 14.9504 20.7872 17.92 7.3728 2.4576 15.1552 2.4576 22.3232 0.1024l36.4544 72.2944c-10.6496 9.216-19.3536 20.5824-25.8048 33.792-7.7824 3.4816-15.36 7.8848-22.6304 13.0048C69.8368 577.024 52.224 647.168 83.7632 697.344h-5.4272c-20.7872 0-37.7856 16.896-37.7856 37.7856s16.896 37.7856 37.7856 37.7856h45.056l37.2736 34.7136c13.9264 13.0048 32.0512 20.0704 50.9952 20.0704H322.56l7.8848 7.3728c13.9264 13.0048 32.0512 20.0704 50.9952 20.0704h430.7968c19.0464 0 37.1712-7.168 50.9952-20.0704l37.2736-34.7136h45.056c20.7872 0 37.7856-16.896 37.7856-37.7856s-16.896-37.7856-37.6832-37.7856z m-152.8832 0c5.12-5.4272 9.3184-11.776 12.3904-18.7392 10.9568 2.4576 23.1424 3.7888 35.9424 3.7888 19.6608 0 39.424-3.2768 54.0672-9.728-7.8848 9.728-17.408 18.0224-28.3648 24.6784h-74.0352z m-521.3184 0c-7.8848-5.5296-14.0288-12.8-18.0224-21.0944-0.1024-0.2048-0.1024-0.3072-0.2048-0.512-3.3792-7.168-5.12-14.9504-5.12-23.1424 0-30.1056 24.4736-54.5792 54.5792-54.5792 1.1264 0 2.3552 0.1024 3.6864 0.2048h0.3072c4.608 0.3072 8.9088-2.4576 10.4448-6.8608 3.072-8.9088 11.3664-14.848 20.6848-14.848 3.1744 0 6.3488 0.7168 9.1136 2.048 2.048 23.4496 14.7456 44.4416 35.0208 57.1392 0.512 0.3072 1.024 0.6144 1.536 0.8192-1.1264 5.2224-1.7408 10.6496-1.7408 16.2816 0 16.4864 5.3248 32.0512 14.7456 44.7488H271.4624z m89.1904-221.0816c2.4576-1.7408 4.096-4.5056 4.3008-7.5776 0.2048-3.072-0.9216-6.0416-3.072-8.192-0.7168-0.7168-1.3312-1.4336-1.8432-2.1504-4.9152-6.9632-3.2768-16.5888 3.6864-21.504 6.9632-4.9152 16.5888-3.2768 21.504 3.6864 2.56 3.584 3.3792 8.192 2.3552 12.4928-0.7168 2.8672-0.1024 5.8368 1.536 8.2944 1.7408 2.3552 4.3008 3.9936 7.2704 4.3008 4.4032 0.512 8.3968 2.8672 10.9568 6.4512 4.9152 6.9632 3.1744 16.5888-3.7888 21.504-3.3792 2.3552-7.4752 3.2768-11.5712 2.56-4.096-0.7168-7.5776-2.9696-10.0352-6.3488-0.512-0.7168-1.024-1.6384-1.4336-2.4576-1.2288-2.7648-3.6864-4.8128-6.656-5.632-2.9696-0.8192-6.0416-0.2048-8.6016 1.536l-72.192 50.8928c-0.8192-1.2288-1.536-2.3552-2.3552-3.584-0.8192-1.1264-1.6384-2.3552-2.56-3.4816l72.4992-50.7904zM633.344 417.792c47.0016 0 85.9136 35.6352 91.0336 81.3056H542.3104c5.12-45.6704 43.9296-81.3056 91.0336-81.3056z m216.4736 99.0208c2.048 2.3552-2.56 20.5824-27.0336 43.4176-2.8672 2.6624-3.9936 6.7584-2.7648 10.5472s4.4032 6.5536 8.2944 7.0656c9.9328 1.4336 17.6128 3.6864 23.1424 6.0416-11.1616 5.2224-22.8352 12.8-33.8944 22.016-0.9216 0.8192-1.9456 1.6384-2.8672 2.4576-2.8672 0.1024-5.7344 0.2048-8.6016 0.2048-10.8544 0-21.4016-1.1264-30.72-3.1744 0.2048-2.048 0.3072-4.096 0.3072-6.144 0-1.2288 0-2.4576-0.1024-3.7888-0.1024-1.2288-0.2048-2.4576-0.3072-3.584v-0.2048c-0.3072-2.3552-0.7168-4.608-1.2288-6.9632 0-0.2048-0.1024-0.3072-0.1024-0.512-0.2048-1.024-0.512-2.1504-0.8192-3.1744-0.1024-0.2048-0.1024-0.4096-0.2048-0.6144-0.3072-0.9216-0.6144-1.9456-0.9216-2.8672 0-0.1024-0.1024-0.3072-0.1024-0.4096-0.3072-1.024-0.7168-1.9456-1.1264-2.8672-0.1024-0.3072-0.2048-0.6144-0.4096-0.8192l-1.2288-2.7648c0-0.1024-0.1024-0.2048-0.1024-0.3072 6.144-9.728 15.6672-20.2752 26.7264-29.5936 11.776-9.8304 24.6784-17.7152 35.7376-21.8112 0.2048-0.1024 0.4096-0.1024 0.7168-0.2048 0.6144-0.2048 1.2288-0.4096 1.7408-0.6144 10.1376-3.3792 15.1552-2.1504 15.872-1.3312z m5.2224 134.656c1.1264 3.7888 4.4032 6.5536 8.2944 7.0656 26.112 3.8912 34.816 12.5952 34.816 14.6432 0 1.024-3.1744 5.2224-13.2096 9.216-11.3664 4.5056-27.3408 7.0656-43.8272 7.0656-10.8544 0-21.504-1.1264-30.72-3.1744v-0.4096c0.1024-0.7168 0.1024-1.4336 0.2048-2.048 0-0.512 0-0.9216 0.1024-1.4336v-1.2288-1.1264-0.9216c0-0.6144 0-1.3312-0.1024-1.9456 0-0.512 0-0.9216-0.1024-1.4336-0.1024-0.8192-0.1024-1.6384-0.2048-2.56-0.1024-0.512-0.1024-1.024-0.2048-1.536s-0.1024-1.024-0.2048-1.536c-0.1024-0.8192-0.3072-1.6384-0.4096-2.4576-0.1024-0.512-0.2048-0.9216-0.3072-1.4336-0.1024-0.512-0.2048-1.1264-0.4096-1.6384-0.1024-0.512-0.3072-1.1264-0.4096-1.6384-0.2048-0.8192-0.4096-1.536-0.7168-2.3552-0.1024-0.4096-0.2048-0.7168-0.3072-1.1264-0.3072-0.9216-0.7168-1.9456-1.024-2.8672-0.1024-0.3072-0.2048-0.6144-0.4096-0.9216-0.2048-0.6144-0.512-1.2288-0.7168-1.7408-0.1024-0.2048-0.2048-0.512-0.3072-0.7168-0.3072-0.6144-0.512-1.2288-0.8192-1.8432 6.144-9.728 15.6672-20.2752 26.7264-29.5936 12.6976-10.5472 26.5216-18.8416 38.1952-22.7328 10.24-3.4816 15.36-2.2528 16.0768-1.4336 2.048 2.3552-2.56 20.5824-27.0336 43.4176-3.072 2.56-4.1984 6.656-2.9696 10.4448z m-63.8976-17.92c-2.048-2.048-4.3008-3.9936-6.656-5.7344 3.3792 0.4096 6.8608 0.7168 10.3424 0.9216-1.3312 1.6384-2.56 3.2768-3.6864 4.8128z m-8.704-108.3392c-10.4448 8.704-19.456 18.2272-26.3168 27.648-12.0832-11.9808-28.2624-18.7392-45.7728-18.7392-6.0416 0-11.9808 0.8192-17.7152 2.4576-6.9632-7.7824-16.896-12.288-27.5456-12.288-7.0656 0-13.824 1.9456-19.5584 5.632-3.4816-4.3008-7.9872-7.7824-13.0048-10.24H789.504c-2.3552 1.7408-4.7104 3.584-7.0656 5.5296z m-181.4528-5.5296c-1.9456 0.9216-3.8912 2.048-5.7344 3.2768-1.1264-1.2288-2.3552-2.2528-3.584-3.2768h9.3184zM494.592 534.9376c3.7888-7.2704 11.264-11.776 19.456-11.776 9.6256 0 18.0224 6.144 20.8896 15.36 1.2288 3.8912 4.7104 6.7584 8.8064 7.168 4.096 0.4096 7.9872-1.6384 10.0352-5.3248 2.8672-5.3248 8.4992-8.704 14.5408-8.704 7.0656 0 13.312 4.5056 15.6672 11.1616 1.3312 3.7888 4.7104 6.4512 8.704 6.8608 3.9936 0.4096 7.7824-1.536 9.8304-5.0176 3.072-5.12 8.3968-8.192 14.336-8.192 7.5776 0 14.1312 5.12 16.0768 12.4928 1.024 3.8912 4.1984 6.8608 8.192 7.5776s7.9872-1.024 10.24-4.4032c3.072-4.7104 8.2944-7.4752 13.824-7.4752 6.144 0 11.776 3.3792 14.6432 8.8064 2.4576 4.7104 8.192 6.656 13.1072 4.608 5.5296-2.3552 11.4688-3.584 17.5104-3.584 15.5648 0 29.696 7.8848 37.9904 21.1968v0.1024c4.4032 7.0656 6.7584 15.2576 6.7584 23.552 0 3.584-0.512 7.3728-1.4336 11.0592v0.1024c-0.4096 1.536-0.9216 3.072-1.4336 4.608-2.2528-0.2048-4.5056-0.3072-6.7584-0.3072-6.0416 0-11.9808 0.8192-17.7152 2.4576-6.9632-7.7824-16.896-12.288-27.5456-12.288-7.0656 0-13.824 1.9456-19.5584 5.632-6.8608-8.4992-17.3056-13.7216-28.7744-13.7216-7.7824 0-15.2576 2.4576-21.4016 6.8608-6.8608-7.3728-16.5888-11.776-27.0336-11.776-7.8848 0-15.36 2.4576-21.504 6.8608-7.8848-9.5232-19.7632-15.36-32.768-15.36-10.752 0-20.7872 3.9936-28.4672 10.9568-7.68-6.9632-17.7152-10.9568-28.4672-10.9568-15.4624 0-29.4912 8.3968-36.864 21.6064-27.7504 0.6144-51.8144 16.384-64.3072 39.3216-14.848-10.24-23.552-26.8288-23.552-44.9536 0-30.1056 24.4736-54.5792 54.5792-54.5792 1.1264 0 2.3552 0.1024 3.6864 0.2048h0.3072c4.608 0.3072 8.9088-2.4576 10.4448-6.8608 3.072-8.9088 11.3664-14.848 20.6848-14.848 8.192 0 15.5648 4.5056 19.456 11.776 1.7408 3.3792 5.2224 5.4272 9.1136 5.4272 3.4816-0.2048 6.9632-2.2528 8.704-5.632z m-136.4992 24.7808c-1.536-5.0176-3.4816-9.9328-5.632-14.7456l16.4864-11.5712c2.2528 2.3552 4.9152 4.4032 7.68 6.0416-7.2704 5.5296-13.6192 12.3904-18.5344 20.2752z m-50.5856 36.5568c-1.1264-5.5296-2.7648-10.9568-4.7104-16.2816l32.5632-22.9376c3.4816 8.6016 5.9392 17.5104 7.3728 26.624-1.6384-0.2048-3.1744-0.3072-4.8128-0.3072-11.776 0-22.6304 4.8128-30.4128 12.9024z m118.1696 128.512c-14.6432-10.24-23.3472-26.7264-23.3472-44.7488 0-30.1056 24.4736-54.5792 54.5792-54.5792 1.1264 0 2.3552 0.1024 3.6864 0.2048h0.3072c4.608 0.3072 8.9088-2.4576 10.4448-6.8608 3.072-8.9088 11.3664-14.848 20.6848-14.848 8.192 0 15.5648 4.5056 19.456 11.776 1.7408 3.3792 5.2224 5.4272 9.1136 5.4272 3.7888 0 7.2704-2.1504 9.0112-5.4272 3.7888-7.2704 11.264-11.776 19.456-11.776 9.6256 0 18.0224 6.144 20.8896 15.36 1.2288 3.8912 4.7104 6.7584 8.8064 7.168 4.096 0.4096 7.9872-1.6384 10.0352-5.3248 2.8672-5.3248 8.4992-8.704 14.5408-8.704 7.0656 0 13.312 4.5056 15.6672 11.1616 1.3312 3.7888 4.7104 6.4512 8.704 6.8608 3.9936 0.4096 7.7824-1.536 9.8304-5.0176 3.072-5.12 8.3968-8.192 14.336-8.192 7.5776 0 14.1312 5.12 16.0768 12.4928 1.024 3.8912 4.1984 6.8608 8.192 7.5776 3.9936 0.7168 7.9872-1.024 10.24-4.4032 3.072-4.7104 8.2944-7.4752 13.824-7.4752 6.144 0 11.776 3.3792 14.6432 8.8064 2.4576 4.7104 8.192 6.656 13.1072 4.608 5.5296-2.3552 11.4688-3.584 17.5104-3.584 15.5648 0 29.7984 7.9872 37.9904 21.1968 4.4032 7.0656 6.7584 15.2576 6.7584 23.552 0 3.584-0.512 7.3728-1.4336 11.0592-5.0176 19.7632-22.8352 33.5872-43.3152 33.5872H425.6768z m493.6704-92.8768c0 10.1376-1.4336 20.0704-4.1984 29.5936-5.0176-8.192-15.5648-14.848-30.4128-19.2512 17.5104-20.5824 27.5456-43.8272 15.7696-57.9584-3.2768-3.8912-10.3424-9.216-23.8592-7.9872-6.7584-7.168-17.2032-11.776-26.9312-14.7456 11.9808-14.0288 20.3776-29.2864 20.8896-41.984h48.7424v112.3328z m-27.9552-132.7104h-31.1296c-6.0416-3.6864-16.2816-5.9392-32.9728-0.4096-0.3072 0.1024-0.7168 0.2048-1.024 0.4096h-81.408c-1.536-17.3056-7.0656-33.3824-15.5648-47.5136 17.3056-21.2992 43.52-33.792 71.0656-33.792 47.0016-0.1024 85.9136 35.5328 91.0336 81.3056zM639.7952 241.2544a56.087552 56.087552 0 0 1-15.36-50.7904c18.3296-3.6864 37.376 1.9456 50.7904 15.36 13.4144 13.4144 19.0464 32.4608 15.36 50.7904-18.3296 3.6864-37.376-1.9456-50.7904-15.36z m64.512 39.424c0-2.9696 0.6144-5.7344 1.7408-8.2944 1.2288-1.2288 2.2528-2.6624 2.7648-4.4032 0-0.1024 0.1024-0.2048 0.1024-0.3072 3.8912-4.8128 9.728-7.9872 16.384-7.9872 11.5712 0 20.992 9.4208 20.992 20.992 0 4.9152-1.7408 9.5232-4.8128 13.312-5.3248-0.7168-10.6496-1.1264-16.1792-1.1264s-10.8544 0.4096-16.1792 1.1264c-3.072-3.6864-4.8128-8.3968-4.8128-13.312z m20.992 32.6656c48.3328 0 88.064 37.6832 91.3408 85.1968-5.3248-0.8192-10.752-1.2288-16.2816-1.2288-31.9488 0-62.464 13.824-83.5584 37.4784-20.3776-22.7328-49.9712-37.1712-82.7392-37.376 3.7888-47.0016 43.3152-84.0704 91.2384-84.0704zM521.728 499.2h-20.7872c-5.632 0-10.24 4.608-10.24 10.24v0.3072c-1.8432 1.2288-3.4816 2.4576-5.12 3.9936-7.68-6.9632-17.7152-10.9568-28.4672-10.9568-9.8304 0-19.1488 3.3792-26.4192 9.3184 0.9216-8.6016-1.3312-17.1008-6.3488-24.2688-3.9936-5.632-9.4208-9.9328-15.6672-12.4928-0.3072-6.7584-2.56-13.312-6.5536-18.944-11.3664-16.1792-33.8944-20.0704-50.0736-8.704-1.536 1.1264-2.9696 2.2528-4.3008 3.584l-3.7888-72.6016h221.696l-2.2528 43.6224c-23.2448 18.3296-38.8096 45.7728-41.6768 76.9024z m48.4352-207.5648l-3.4816 66.3552H342.7328l-3.4816-66.3552h230.912zM150.2208 401.1008c-1.3312-2.7648-3.8912-4.7104-6.8608-5.3248-2.9696-0.7168-6.0416 0-8.4992 1.8432-0.8192 0.6144-1.6384 1.1264-2.4576 1.536-3.6864 1.8432-7.8848 2.1504-11.776 0.9216-3.8912-1.3312-7.0656-3.9936-9.0112-7.68-1.8432-3.6864-2.1504-7.8848-0.8192-11.776s3.9936-7.0656 7.68-9.0112c3.9936-1.9456 8.6016-2.1504 12.6976-0.512 2.7648 1.1264 5.8368 0.9216 8.3968-0.3072 2.6624-1.3312 4.5056-3.6864 5.3248-6.5536 1.1264-4.3008 4.096-7.8848 7.9872-9.9328 7.5776-3.8912 16.896-0.7168 20.7872 6.8608 3.8912 7.5776 0.7168 16.896-6.8608 20.7872-0.8192 0.4096-1.7408 0.8192-2.6624 1.024-2.9696 0.8192-5.3248 2.9696-6.5536 5.7344-1.2288 2.7648-1.1264 5.9392 0.2048 8.704l39.7312 78.848c-1.3312 0.6144-2.56 1.2288-3.8912 1.8432-1.2288 0.6144-2.56 1.3312-3.7888 2.048l-39.6288-79.0528z m52.6336 95.0272c33.5872-16.896 74.6496-8.8064 104.6528 19.968l-33.28 23.4496c-25.6-22.016-61.3376-30.3104-96.5632-23.6544 7.0656-8.192 15.5648-14.848 25.1904-19.7632zM103.424 690.176c-28.9792-41.1648-14.336-101.6832 32.768-134.8608 47.104-33.1776 109.056-26.7264 138.0352 14.5408 7.5776 10.752 12.3904 23.2448 14.1312 36.5568-34.6112 6.656-60.8256 37.1712-60.8256 73.728 0 5.9392 0.7168 11.776 2.048 17.3056H109.2608c-2.048-2.3552-3.9936-4.8128-5.8368-7.2704z m-42.3936 44.9536c0-9.5232 7.7824-17.3056 17.3056-17.3056H237.7728c1.4336 2.56 3.072 5.0176 4.9152 7.3728-14.848 2.1504-26.9312 13.0048-30.9248 27.136H78.2336c-9.5232 0.1024-17.2032-7.68-17.2032-17.2032z m788.2752 84.8896c-10.1376 9.4208-23.2448 14.5408-37.0688 14.5408H381.44c-13.824 0-26.9312-5.2224-37.0688-14.5408l-10.4448-9.728c-0.3072-0.3072-0.512-0.512-0.8192-0.7168l-9.9328-9.216h547.328l-21.1968 19.6608z m-548.7616-12.8h-88.8832c-13.824 0-26.9312-5.2224-37.0688-14.5408l-21.1968-19.7632h58.368c4.5056 15.7696 19.0464 27.4432 36.352 27.4432h45.056l7.3728 6.8608z m645.12-27.4432H248.1152c-9.5232 0-17.3056-7.7824-17.3056-17.3056s7.7824-17.3056 17.3056-17.3056h697.5488c9.5232 0 17.3056 7.7824 17.3056 17.3056s-7.7824 17.3056-17.3056 17.3056zM677.9904 248.1152z m2.8672-6.9632c1.6384 1.6384 1.6384 4.1984 0 5.8368-0.8192 0.8192-1.8432 1.2288-2.8672 1.2288-1.024 0-2.048-0.4096-2.8672-1.2288l-40.96-40.96c-1.6384-1.6384-1.6384-4.1984 0-5.8368 1.6384-1.6384 4.1984-1.6384 5.8368 0l40.8576 40.96z" p-id="14966"></path></svg>