<?xml version="1.0" standalone="no"?><!DOCTYPE svg PUBLIC "-//W3C//DTD SVG 1.1//EN" "http://www.w3.org/Graphics/SVG/1.1/DTD/svg11.dtd"><svg t="1753255356977" class="icon" viewBox="0 0 1024 1024" version="1.1" xmlns="http://www.w3.org/2000/svg" p-id="34046" xmlns:xlink="http://www.w3.org/1999/xlink" width="200" height="200"><path d="M151.52 527.55a382.68 382.19 0 1 0 765.36 0 382.68 382.19 0 1 0-765.36 0Z" fill="#F8E868" p-id="34047"></path><path d="M162.76 336.88c-1.1 0-2.22-0.26-3.27-0.81a7.005 7.005 0 0 1-2.92-9.46c9.47-17.92 20.46-35.25 32.64-51.52 2.32-3.09 6.71-3.72 9.8-1.4s3.72 6.71 1.4 9.8a377.626 377.626 0 0 0-31.47 49.66c-1.24 2.38-3.67 3.73-6.18 3.73z" fill="#7C4924" p-id="34048"></path><path d="M501.4 897.26c-52.6 0-103.63-10.29-151.68-30.59-46.4-19.6-88.08-47.66-123.86-83.4-35.79-35.74-63.88-77.36-83.51-123.71-20.32-47.99-30.63-98.96-30.63-151.5 0-44.17 7.35-87.51 21.85-128.82 1.28-3.65 5.27-5.57 8.92-4.29s5.57 5.28 4.29 8.92c-13.98 39.81-21.06 81.59-21.06 124.18 0 50.65 9.93 99.79 29.52 146.04 18.92 44.68 46.01 84.8 80.51 119.26s74.68 61.51 119.42 80.41c46.31 19.56 95.51 29.48 146.23 29.48s99.92-9.92 146.23-29.48c44.73-18.9 84.91-45.95 119.42-80.41 34.5-34.46 61.59-74.58 80.51-119.26 19.59-46.25 29.52-95.38 29.52-146.04s-9.93-99.79-29.52-146.04c-18.92-44.68-46.01-84.8-80.51-119.26-34.5-34.46-74.68-61.51-119.42-80.41-46.31-19.56-95.51-29.48-146.23-29.48-52.77 0-103.8 10.71-151.67 31.83-46.25 20.4-87.33 49.49-122.11 86.44-2.65 2.82-7.08 2.95-9.9 0.3a7.01 7.01 0 0 1-0.3-9.9c36.07-38.32 78.68-68.49 126.65-89.65 49.66-21.91 102.59-33.02 157.32-33.02 52.6 0 103.63 10.29 151.68 30.59 46.4 19.6 88.08 47.66 123.86 83.4 35.79 35.74 63.88 77.36 83.51 123.71 20.32 47.99 30.63 98.96 30.63 151.5 0 52.54-10.3 103.51-30.63 151.5-19.63 46.35-47.72 87.97-83.51 123.71-35.79 35.74-77.46 63.8-123.86 83.4-48.04 20.3-99.07 30.59-151.67 30.59z" fill="#7C4924" p-id="34049"></path><path d="M501.4 814.55c-81.96 0-159.02-31.88-216.98-89.76-57.96-57.89-89.88-134.85-89.88-216.72s31.92-158.83 89.88-216.72 135.02-89.76 216.98-89.76 159.02 31.88 216.98 89.76c57.96 57.89 89.88 134.85 89.88 216.72s-31.92 158.83-89.88 216.72c-57.96 57.88-135.02 89.76-216.98 89.76z m0-598.97c-78.23 0-151.77 30.42-207.09 85.67-55.31 55.24-85.77 128.69-85.77 206.81S239 659.63 294.31 714.87s128.86 85.67 207.09 85.67 151.77-30.42 207.09-85.67c55.31-55.24 85.77-128.69 85.77-206.81s-30.46-151.57-85.77-206.81c-55.32-55.24-128.86-85.67-207.09-85.67z" fill="#7C4924" p-id="34050"></path><path d="M668.78 799.79c-4.98-82.51-9.96-165.03-14.93-247.54l-1.03-0.2c0.02 0 0.03-0.01 0.05-0.01 3.7-33.93 2.24-70.79 0.92-104.96-2.95-76.77-5.9-153.53-8.86-230.3-0.29-7.63-0.88-15.98-6.12-21.53-5.25-5.55-16.81-4.91-18.52 2.53l0.18-8.22c-36.48 86.38-51.27 181.83-42.63 275.2 1.59 17.23 4.07 34.74 11.73 50.25 5.9 11.95 16.42 21.06 28.21 26.96 3.29 1.65 7.11 3.62 11.15 5.41l-1.79-0.35c-4.23 80.51-9.68 169.53-13.92 250.05-0.61 11.57-1.15 23.55 3.3 34.32s15.37 19.97 27.36 18.88c10.72-0.98 19.21-9.89 22.66-19.7s2.86-20.45 2.24-30.79zM455.61 442.9a2867.381 2867.381 0 0 0-20.04 360.55c0.08 10.07 0.26 20.44 4.22 29.7s12.65 17.23 22.72 17.22c10.72-0.02 19.72-9.1 23.17-19.25s2.57-21.2 1.65-31.88c-10.14-117.72-20.28-235.44-30.43-353.16" fill="#FF686E" p-id="34051"></path><path d="M675.73 809.87c-0.19-11.35-1.22-22.72-1.9-34.05-1.36-22.62-2.73-45.25-4.09-67.87l-9.39-155.71a6.687 6.687 0 0 0-0.74-2.75c4.1-41.26 1.43-82.92-0.16-124.25-1.7-44.34-3.41-88.68-5.11-133.02-0.97-25.14-1.94-50.29-2.9-75.43-0.43-7.57-2.23-14.61-6.02-21.2-3.52-6.11-8.09-11.55-11.74-17.59-2.65-4.39-8.5-3.99-11.23 0-31.47 46.08-44.84 102.54-50.71 157.31-3.04 28.38-3.91 56.98-3.07 85.5 0.38 13.08 1.13 26.15 2.25 39.19 1.37 16.07 3.05 32.46 8.56 47.72 5.76 15.92 15.7 28.63 30.34 37.31 3.31 1.97 6.88 4.01 10.61 5.9-2.2 41.65-4.58 83.28-6.97 124.92-2.44 42.69-5.72 85.46-7.06 128.2-0.58 18.46 3.09 38.94 20.67 48.76 15.86 8.85 34.17 1.58 42.72-13.74 4.95-8.86 6.11-19.21 5.94-29.2z m-84.58-308.13c-4.68-14.14-6.18-29.03-7.4-43.8a697.673 697.673 0 0 1-2.07-37.14c-1.55-52.99 2.32-106.92 16.78-158.1 6.89-24.39 16.4-48.04 29.68-69.6 5.01 7.21 9.76 14.34 10.3 23.68v0.01c3.38 87.94 7.86 175.92 9.99 263.9 0.53 21.8 0.44 43.65-1.5 65.38-4.77-0.22-9.64-2.12-13.85-3.91-5.91-2.5-11.87-5.41-17.35-8.74-12.21-7.42-20.12-18.19-24.58-31.68z m65.89 333.24c-4.15 5.95-11.06 10.11-18.45 8.52-18.24-3.92-19.71-26.34-19.12-41.19 1.6-39.95 4.34-79.89 6.62-119.81 2.4-42.06 4.82-84.11 7.05-126.18 4.82 1.58 9.74 2.58 14.61 2.62 2.46 40.69 4.91 81.37 7.37 122.06 1.28 21.29 2.57 42.59 3.85 63.88 1.29 21.32 3.25 42.72 3.75 64.07 0.21 8.96-0.39 18.45-5.68 26.03zM511.12 200.8c-0.56-8.3-13.57-8.36-13 0 2.42 35.82 4.84 71.68 4.88 107.6 0.02 17.76-0.54 35.53-1.98 53.24-1.28 15.77-2.86 32.44-10.08 46.79-5.75 11.44-15.53 21.56-28.27 24.71 0-75.71 0.01-151.34 0.01-227.06 0.62-8.95-12.98-9.15-12.98-0.58v227.8c-8.11-1.83-15.41-7.02-20.91-13.45-10-11.7-13.31-27.48-14.36-42.44-1.19-17.13-0.59-34.45-0.61-51.61-0.06-40.64-0.13-81.28-0.19-121.91 0.01-8.38-12.99-8.39-12.98-0.01l0.18 116.96c0.03 18.81-0.69 37.8 0.62 56.57 1.14 16.41 4.54 33.35 14.43 46.89 8.04 11.01 19.35 19.58 32.84 22.02C435.25 560.88 428.61 676.24 429 791.6c0.08 22.49-1.31 54.58 24.87 63.77 10.38 3.65 21.55 0.01 29.08-7.69 8.46-8.66 11.49-20.49 11.7-32.31 0.26-13.93-1.84-28.06-3.04-41.93-1.25-14.55-2.51-29.1-3.76-43.65-2.51-29.1-5.01-58.2-7.52-87.3-5.63-65.4-11.27-130.82-16.9-196.22 10.3-1.93 19.87-7.63 27.19-15.08 11.66-11.84 17.54-27.87 20.38-43.97 3.2-18.13 4.09-36.78 4.66-55.14 1.37-43.81-1.59-87.6-4.54-131.28zM481.6 817.16c-0.43 9.84-4.01 21.7-14.11 25.72-9.75 3.88-18.72-4.59-22.09-13.11-4.68-11.8-3.35-25.75-3.39-38.17-0.18-54.63 1.2-109.26 4.14-163.81 2.21-41.07 5.34-82.1 9.32-123.04l23.49 272.66c1.13 13.12 3.22 26.57 2.64 39.75z" fill="#7C4924" p-id="34052"></path><path d="M307.24 341.71c-29.53 39.62-46.37 87.84-48.55 137.16-0.43 9.65 14.58 9.63 15 0 2.07-46.82 18.52-92.05 46.5-129.59 2.44-3.27 0.51-8.35-2.69-10.26-3.8-2.27-7.85-0.54-10.26 2.69zM255.96 525.76v23.46c0 9.71 15.18 9.67 15-0.18v-23.13c0.16-9.8-15-9.87-15-0.15z" fill="#FFFFFF" p-id="34053"></path></svg>