<?xml version="1.0" standalone="no"?><!DOCTYPE svg PUBLIC "-//W3C//DTD SVG 1.1//EN" "http://www.w3.org/Graphics/SVG/1.1/DTD/svg11.dtd"><svg t="1753254648982" class="icon" viewBox="0 0 1024 1024" version="1.1" xmlns="http://www.w3.org/2000/svg" p-id="21771" xmlns:xlink="http://www.w3.org/1999/xlink" width="200" height="200"><path d="M217.331863 558.853363c21.450937 7.902977 41.772878 4.515987 60.965822-8.467475 9.031974 24.273429 20.886439 44.030871 43.466372 52.498346 23.708931 8.467475 42.901874-3.38699 61.53032-16.934951 23.144432 22.015436 51.36935 28.224917 79.029769 33.305403 32.740904 5.644983 64.352811 1.128997 93.142227-18.628446 3.38699-2.257993 9.596472-3.951488 13.54796-2.257993 24.837927 8.467475 45.724366 5.080485 59.272326-22.579934 36.692393 18.628445 68.868798 14.112459 94.835722-20.32194 1.693495-2.257993 3.951488-3.951488 6.209482-3.951489 10.16097-1.693495 20.32194-2.257993 30.482911-3.38699 3.38699 36.692393 18.063947 46.288864 50.804851 32.176406 2.257993-1.128997 4.515987-3.38699 7.338479-3.38699 6.77398-0.564498 14.112459-2.822492 19.757442-0.564499 23.708931 8.467475 51.36935-1.693495 59.272326-23.144432 9.031974-25.966924-2.257993-54.191841-27.660419-65.481808-10.725469-4.515987-22.579934-7.338479-33.869901-9.596472-6.77398-1.693495-10.16097-3.951488-11.854465-12.418963-5.644983-32.176406-21.450937-57.014333-50.804851-68.868799-10.725469-4.515987-21.450937-11.289967-29.918412-20.32194-32.176406-35.563396-60.965821-43.466373-103.867696-25.966924-3.38699-8.467475-6.209482-16.93495-9.596472-25.402426-7.338479-16.370452-16.370452-29.353914-23.708931-38.385887v0.564498c-32.176406-33.305402-67.175303-45.159868-107.819184-36.127894C456.114664 260.233738 429.018743 287.894157 416.599779 332.489526c-38.385888-31.611907-71.126792-37.256891-101.609702-18.628446-23.708931 14.676957-37.256891 37.821389-49.111356 63.788314-2.257993 5.080485-4.515987 10.16097-6.209482 14.676957-7.902977-1.693495-14.112459-3.38699-20.886439-4.515987-33.869901-5.644983-61.53032 7.902977-78.46527 38.385887-15.241455 27.660419-13.54796 62.659316 5.644984 91.448732 13.54796 19.757442 30.482911 33.305402 51.369349 41.20838z m161.446527 2.257993c-2.257993 8.467475-16.370452 14.676957-25.402425 10.16097-5.080485-2.822492-9.031974-8.467475-14.676957-11.854465-6.209482-3.951488-12.418964-8.467475-19.192944-9.031973-10.16097-0.564498-13.54796-6.209482-14.676957-15.805954-1.693495-10.725469 5.644983-9.596472 11.289967-11.289967 4.515987-1.693495 9.596472-2.257993 13.54796-5.080485 20.886439-12.983462 40.079383-6.209482 58.14333 3.951488-2.822492 13.54796-5.644983 25.966924-9.031974 38.950386z m220.718854-6.77398c-5.644983 1.128997-12.418964 2.257993-18.063947 1.693495-20.32194-1.693495-34.998897 7.902977-44.030871 26.531422-9.031974 19.192944-24.273429 23.144432-46.853363 24.837928-7.338479-2.257993-20.32194-5.644983-32.176406-10.160971-10.16097-3.951488-16.370452-12.418964-16.93495-24.837927-0.564498-12.418964-6.77398-16.93495-18.063947-16.370452-6.209482 0.564498-15.241455 3.38699-16.370452-7.902977-1.128997-7.902977 8.467475-19.192944 16.93495-20.32194 24.837927-3.38699 30.482911-9.031974 37.256891-33.869901 1.128997-3.951488 4.515987-7.902977 7.902977-9.596472 37.821389-19.757442 106.690187-7.338479 137.173098 23.708931 2.257993 2.822492 5.080485 5.644983 6.77398 8.467475 12.418964 18.628445 7.338479 33.305402-13.54796 37.821389z m-118.544653-89.755237c2.822492-9.031974 3.951488-20.32194 7.338478-21.450937 13.54796-5.080485 25.966924-23.144432 43.466373-9.596472-4.515987 9.031974-8.467475 18.063947-12.983462 27.660419-11.289967 1.128997-22.579934 2.257993-37.821389 3.38699z m320.635061 50.804851c6.209482-6.209482 15.805954-7.338479 24.273428-10.725469 13.54796 4.515987 25.966924 6.77398 37.256891 12.418964 9.596472 4.515987 16.93495 12.983462 12.418964 26.531422-3.38699 10.725469-17.499449 20.32194-27.660419 15.805954-15.241455-6.209482-28.224917-5.644983-41.772878 5.080485-4.515987 3.38699-14.112459 2.257993-19.192943-1.128996-3.38699-2.257993-3.38699-13.54796-1.693495-19.192944 3.951488-10.16097 9.031974-21.450937 16.370452-28.789416z m-144.511577-137.737596c11.854465-12.418964 26.531422-19.192944 42.901874-13.547961 7.902977 2.822492 15.241455 6.77398 22.015436 11.854466 18.063947 13.54796 36.127894 26.531422 53.062844 41.772877 7.338479 6.77398 14.112459 17.499449 16.934951 27.660419 5.080485 20.32194-2.257993 32.176406-21.450937 32.740904-23.708931 1.128997-36.127894 12.983462-41.20838 37.256891-2.822492 14.112459-12.418964 16.93495-18.628445 16.93495-39.514884 0.564498-55.885336-22.015436-50.240353-59.272326 1.693495-10.16097 0-21.450937-1.693495-32.176406-1.128997-7.902977-4.515987-15.241455-6.77398-23.144432-4.515987-14.112459-6.209482-28.224917 5.080485-40.079382z m-25.402426 107.254685c-7.338479 20.886439 3.38699 38.950386 23.144433 47.417861 9.031974 3.951488 18.628445 6.77398 28.224917 10.160971-10.16097 14.676957-32.740904 21.450937-45.159868 14.112458-2.257993-1.128997-4.515987-4.515987-4.515987-7.338478-2.257993-41.772878-27.660419-62.659316-59.272326-77.900772-6.77398-3.38699-14.112459-5.080485-22.015435-7.902977 1.128997-4.515987 2.257993-9.031974 3.951488-15.241455 25.966924 13.54796 47.982359 6.209482 66.610805-14.676957 10.16097 16.93495 16.370452 31.047409 9.031973 51.369349zM484.339581 273.2172c11.289967-4.515987 23.708931-5.644983 32.740904-7.902977 37.256891 4.515987 70.562293 12.418964 87.497244 50.240353 11.854465 25.966924 12.418964 53.627343 1.693495 80.158765-7.902977 19.757442-19.757442 23.708931-36.692393 11.854465-8.467475-5.644983-16.370452-12.418964-24.837927-18.628445-13.54796-11.289967-27.660419-10.725469-41.208379-0.564499l-16.934951 13.54796c-10.725469 9.031974-22.579934 10.16097-34.434399 6.773981-15.241455-3.951488-20.886439-11.854465-22.015435-29.353914-2.822492-46.853363 20.32194-93.142227 54.191841-106.125689z m-146.76957 50.240352C368.61742 316.119074 398.535832 338.699008 402.487321 372.568908c2.257993 21.450937 9.596472 40.079383 20.32194 58.14333 6.77398 11.854465 12.418964 25.402426 14.676957 38.950386 3.38699 20.32194-10.725469 32.176406-28.224917 23.144432-12.983462-6.77398-24.273429-16.370452-36.127894-25.402425-18.628445-14.112459-23.708931-14.112459-41.772878-0.564499-6.209482 5.080485-12.983462 10.16097-19.757442 14.112459-16.370452 9.031974-29.918412 3.951488-37.256891-14.676957-3.951488-10.725469-5.644983-23.144432-7.902977-34.434399 0-49.675854 32.740904-99.916207 71.126792-108.383683zM173.300992 442.566703c5.644983-21.450937 20.32194-33.305402 38.950386-38.385887 13.54796-3.38699 27.660419-2.822492 45.159868-4.515987-11.854465 46.288864-8.467475 85.23925 21.450937 117.415656-23.708931 16.370452-42.337376 11.854465-54.191841-15.241455-6.209482-13.54796-14.676957-18.628445-27.660419-19.757442-20.886439-1.693495-29.918412-16.93495-23.708931-39.514885z" p-id="21772"></path><path d="M1002.549063 491.67806c-39.514884-27.095921-85.23925-29.353914-129.83462-31.611908 3.38699 2.822492 7.902977 3.951488 11.289967 6.209482 16.93495 9.031974 34.434399 16.370452 50.240353 27.095921 17.499449 12.418964 19.192944 28.224917 5.080485 44.595369-11.289967 12.983462-25.402426 26.531422-40.643881 32.740904-34.998897 14.676957-71.126792 28.789416-108.383682 36.692393-107.819184 23.144432-216.767365 23.708931-325.715546 19.192943-89.190739-3.38699-177.252481-12.983462-263.620728-38.950386-40.643881-11.854465-80.158765-26.531422-114.028666-55.320838-26.531422-22.579934-24.273429-41.772878 6.209482-57.578831 12.418964-6.209482 25.966924-10.16097 38.950386-15.241455 0-0.564498-0.564498-1.128997-0.564498-1.693495-20.886439 0-41.772878-2.257993-62.659317 0.564498-16.370452 2.257993-33.305402 8.467475-47.417861 18.063947-25.402426 16.93495-28.224917 46.853363-7.338478 70.562293 9.596472 10.725469 20.886439 20.32194 32.740904 27.660419 45.724366 29.353914 96.529217 43.466373 147.334068 56.449835 8.467475 2.257993 16.93495 6.77398 23.708931 12.983462 101.045204 95.964719 218.46086 142.253583 352.246968 129.270121 112.899669-10.725469 211.68688-60.401323 298.619625-139.431091 11.854465-10.725469 24.273429-16.370452 37.821389-21.450937 35.563396-12.983462 71.126792-26.531422 99.916207-54.191842 24.837927-22.579934 23.708931-47.982359-3.951488-66.610804z m-442.002205 269.830209c1.693495-1.693495 108.948181-24.273429 164.833517-99.351709 5.080485-6.77398 9.596472-10.725469 17.499449-11.289967 38.950386-4.515987 11.289967-1.693495 49.675854-6.209482-63.223815 71.126792-141.124587 108.948181-232.00882 116.851158zM504.097023 308.780595c9.031974 1.693495 18.063947 1.693495 27.095921 0.564499 8.467475-1.128997 16.370452-6.77398 14.112458-16.934951-1.693495-6.209482-9.596472-10.16097-14.676957-15.241455-11.854465 4.515987-20.32194 7.338479-28.789415 11.289967-3.38699 1.693495-7.902977 7.902977-7.338479 10.16097 1.128997 4.515987 5.644983 9.596472 9.596472 10.16097zM556.030871 346.601985c3.38699 2.822492 9.031974 2.822492 15.241455 4.515986 3.38699-1.693495 10.725469-3.951488 11.289967-6.77398 0.564498-5.080485-2.822492-11.854465-6.209482-15.241455-3.38699-3.951488-9.031974-6.77398-13.54796-6.209482-5.644983 0.564498-10.725469 5.080485-15.805954 8.467475 2.257993 5.080485 4.515987 11.289967 9.031974 15.241456zM512.564498 343.214994c6.209482-3.38699 11.289967-6.209482 16.934951-8.467475-3.951488-5.080485-6.77398-12.418964-11.854466-14.676957-6.209482-2.822492-13.54796-1.128997-20.32194 0-1.693495 0-3.951488 9.596472-2.822492 10.725469 5.080485 4.515987 11.289967 7.902977 18.063947 12.418963zM484.904079 309.909592c0.564498-1.128997-2.822492-9.031974-5.080485-9.596472-8.467475-3.38699-25.966924 9.596472-26.531422 19.757442 0 3.951488 3.38699 7.338479 6.77398 15.241456 10.16097-10.16097 18.063947-16.93495 24.837927-25.402426zM476.436604 339.263506c-5.644983 6.77398-11.854465 13.54796-17.499449 20.321941-0.564498 0.564498 3.38699 5.644983 7.902977 12.418963 7.338479-9.031974 12.983462-15.805954 18.063947-23.144432 0.564498-1.128997-5.644983-6.209482-8.467475-9.596472zM572.965821 323.457552c3.951488-7.338479 7.902977-12.418964 6.773981-14.112458-2.822492-6.209482-7.902977-10.725469-11.854466-15.805954-3.38699 3.38699-9.596472 8.467475-9.031973 9.031974 2.822492 6.209482 7.338479 11.854465 14.112458 20.886438zM333.618523 381.036384c1.128997-3.951488-1.128997-11.854465-4.515987-14.112459-3.38699-1.693495-10.725469-0.564498-13.54796 2.822492-7.902977 9.596472-10.725469 20.886439-6.209482 34.998897 13.54796-2.257993 20.32194-11.854465 24.273429-23.70893zM375.3914 365.794928c-0.564498-14.112459-11.854465-28.789416-22.579934-29.918412-2.822492-0.564498-6.77398 1.693495-9.031973 3.38699-1.128997 1.128997-1.128997 5.080485 0 7.902977 3.951488 11.289967 19.192944 20.32194 31.611907 18.628445zM352.246968 415.470783c-1.128997 3.38699 1.128997 9.596472 3.951488 11.854465 9.596472 7.338479 19.757442 7.338479 31.611908 2.257993-5.644983-14.112459-15.241455-19.757442-26.531422-21.450937-2.822492 0-8.467475 4.515987-9.031974 7.338479zM339.828004 425.631753c1.128997-1.128997-1.128997-9.596472-2.257993-9.596472-7.338479-0.564498-15.241455-1.128997-22.015435 1.128997-3.951488 1.693495-6.77398 8.467475-10.160971 12.983462 4.515987 2.822492 9.031974 5.644983 15.805954 9.596472 6.77398-5.080485 12.983462-9.031974 18.628445-14.112459zM291.845645 420.551268c0.564498-5.080485-5.080485-10.725469-7.902977-16.370452-4.515987 4.515987-9.031974 9.031974-15.241455 15.805954 5.644983 7.902977 9.596472 12.983462 13.54796 18.063947 3.38699-5.644983 9.031974-11.289967 9.596472-17.499449zM373.133407 383.294377c-9.596472-6.77398-18.063947-12.983462-27.660419-3.951488-1.693495 1.693495-1.128997 9.596472 1.128997 12.418963 4.515987 7.338479 16.370452 3.38699 26.531422-8.467475zM303.135612 356.762955c-11.289967 2.822492-15.805954 10.16097-15.805954 24.273429 14.676957-2.257993 19.757442-10.725469 15.805954-24.273429z" p-id="21773"></path><path d="M509.742007 522.725469c-1.128997-3.38699-6.209482-7.902977-9.031974-7.902977-7.902977 1.128997-16.370452 2.822492-23.144432 6.77398-3.951488 2.257993-8.467475 10.16097-7.338479 14.112459 1.128997 3.951488 7.902977 6.77398 12.983462 10.16097 8.467475-4.515987 15.805954-7.902977 22.579934-12.418964 2.257993-2.257993 5.080485-8.467475 3.951489-10.725468zM529.499449 530.063947c-10.16097-0.564498-25.966924 12.418964-25.402426 20.321941 0.564498 3.38699 4.515987 5.644983 5.644984 6.77398 15.241455 0 31.611907-11.854465 29.918412-19.757442-1.128997-2.822492-6.77398-6.77398-10.16097-7.338479zM526.676957 487.162073c-3.951488 0.564498-9.596472 4.515987-10.725469 8.467475-2.257993 7.902977 11.854465 21.450937 20.886439 21.450937 3.38699 0 7.338479-3.38699 9.031974-5.080485 0.564498-12.418964-10.725469-25.402426-19.192944-24.837927zM501.83903 494.500551c-5.080485-2.822492-10.725469-8.467475-15.805954-8.467475-5.080485 0-10.16097 5.644983-15.241455 9.031974 3.951488 3.951488 7.902977 7.902977 14.112458 13.54796 6.209482-5.644983 11.289967-9.596472 16.934951-14.112459zM571.836825 496.194046c-5.080485 1.128997-9.031974 5.644983-13.547961 9.031974 3.951488 3.951488 7.902977 10.725469 11.289967 10.725468 5.080485-0.564498 10.16097-5.644983 15.241456-9.031973 0-1.693495 0-3.951488-0.564499-5.644984-4.515987-2.257993-9.031974-6.209482-12.418963-5.080485zM437.486218 540.789416c-0.564498 0.564498 3.951488 5.644983 7.902977 11.289967 6.77398-7.902977 11.854465-13.54796 16.934951-19.757443-2.822492-2.257993-6.77398-7.902977-7.338479-7.338478-6.77398 5.080485-11.854465 10.16097-17.499449 15.805954zM728.202867 421.115766c8.467475 1.693495 15.241455-5.080485 14.112458-13.54796-1.128997-9.596472-16.93495-25.402426-28.789415-25.966924-1.128997 2.257993-5.080485 5.644983-5.644984 10.16097-1.693495 11.289967 10.16097 27.660419 20.321941 29.353914zM687.558986 451.034179c-6.77398-2.257993-15.241455 11.289967-13.547961 23.70893 0.564498 5.644983 5.644983 12.983462 10.160971 14.676957 6.77398 2.257993 14.676957-11.289967 14.112458-28.224917-2.257993-2.257993-5.644983-8.467475-10.725468-10.16097zM672.882029 425.067255c1.128997 4.515987 7.338479 9.596472 11.854465 10.725468 10.725469 1.693495 24.837927-7.902977 22.015435-14.112458-2.257993-5.644983-9.596472-8.467475-14.676957-11.854466-12.983462 2.257993-21.450937 7.902977-19.192943 15.241456zM698.284454 387.810364c2.822492-6.209482-9.596472-15.805954-20.32194-14.112459-5.080485 0.564498-9.596472 6.77398-14.112459 10.725469 5.644983 5.080485 11.289967 10.725469 18.063947 16.93495 7.338479-6.209482 14.112459-8.467475 16.370452-13.54796zM753.605292 450.46968c5.644983-1.128997 10.16097-6.77398 15.241456-10.16097-6.209482-5.644983-11.854465-11.289967-20.321941-19.192944-5.080485 7.338479-10.16097 11.289967-10.725469 15.805954 0 10.16097 7.338479 15.241455 15.805954 13.54796zM702.800441 442.002205c-1.693495 2.257993 1.693495 11.854465 3.951488 12.418964 10.16097 2.257993 16.370452-4.515987 20.886439-15.805954-10.725469-6.209482-19.192944-6.77398-24.837927 3.38699zM202.090408 460.066152c5.644983-7.902977 11.289967-15.805954 15.805954-24.273429 1.128997-2.257993-0.564498-9.031974-2.822492-10.725468-2.257993-1.693495-8.467475-0.564498-10.16097 1.693495-7.338479 8.467475-11.289967 18.628445-7.902977 29.918412l5.080485 3.38699zM227.492834 449.905182c0 5.644983 3.951488 10.725469 6.77398 16.370452 3.38699-5.644983 7.338479-11.289967 11.854465-18.628445-4.515987-5.644983-7.902977-9.596472-11.289967-13.547961-2.257993 5.080485-6.77398 10.725469-7.338478 15.805954zM245.556781 416.035281c-5.080485-3.951488-9.596472-8.467475-15.241456-10.725468-1.693495-1.128997-5.644983 3.38699-8.467475 5.080485 4.515987 4.515987 9.031974 8.467475 14.676957 14.112458 3.951488-3.951488 6.209482-6.209482 9.031974-8.467475z" p-id="21774"></path></svg>