<?xml version="1.0" standalone="no"?><!DOCTYPE svg PUBLIC "-//W3C//DTD SVG 1.1//EN" "http://www.w3.org/Graphics/SVG/1.1/DTD/svg11.dtd"><svg t="1753254619070" class="icon" viewBox="0 0 1024 1024" version="1.1" xmlns="http://www.w3.org/2000/svg" p-id="20654" xmlns:xlink="http://www.w3.org/1999/xlink" width="200" height="200"><path d="M618.690187 479.823594c-3.951488-38.950386-29.918412-54.191841-64.352811-34.998897-22.579934 12.983462-44.030871 28.224917-67.175303 40.079382-28.224917 14.676957-44.595369 33.869901-41.20838 68.868799 4.515987 13.54796 5.080485 34.998897 14.112459 38.950386 25.402426 10.725469 53.062845 19.757442 78.46527-4.515987 14.112459-13.54796 29.353914-25.966924 46.288865-35.563396 30.482911-16.370452 37.256891-40.643881 33.8699-72.820287z" p-id="20655"></path><path d="M521.596472 432.970232c-1.128997-3.38699-2.257993-6.209482-3.38699-9.596472-18.628445-1.693495-40.079383-9.596472-55.885336-3.38699-36.692393 15.241455-71.69129 35.563396-105.561191 57.014333-27.095921 16.93495-16.93495 47.417861-14.676957 72.255788 0.564498 8.467475 19.757442 18.063947 31.611907 23.144432 13.54796 5.644983 28.789416 7.338479 51.933848 12.983462-27.660419-89.755237 33.869901-121.367144 95.964719-152.414553z" p-id="20656"></path><path d="M239.347299 649.173098c59.836825 14.676957 121.367144 25.402426 179.510474 46.288865 60.401323 21.450937 104.996692 3.38699 147.334068-36.127895 20.32194-19.192944 29.353914-40.643881 19.757442-79.029768-10.16097 16.93495-16.370452 25.402426-20.32194 35.563396-14.676957 38.385888-72.255788 70.562293-112.335171 60.965821-72.820287-17.499449-145.076075-36.127894-217.896362-53.062844-23.708931-5.644983-35.563396-16.93495-34.998897-42.337376 0.564498-9.031974-7.902977-18.063947-11.854465-27.095921-3.38699 2.257993-6.77398 3.951488-9.596472 6.209482-6.77398 62.094818 1.693495 73.949283 60.401323 88.62624zM276.60419 443.6957c-38.950386 16.370452-32.740904 49.675854-31.047409 80.158765 1.693495 30.482911 30.482911 20.32194 46.853362 28.224918 4.515987 2.257993 10.16097 2.257993 10.160971 2.257993 10.16097-32.740904 12.418964-68.868798 31.611907-92.577729 19.757442-24.273429 54.75634-36.127894 84.110254-53.627343-38.950386-22.015436-69.997795-10.725469-99.916208 11.289967-12.983462 9.596472-27.095921 18.063947-41.772877 24.273429z" p-id="20657"></path><path d="M235.39581 441.437707c18.628445-23.708931 51.933848-36.127894 79.029769-53.627343-0.564498-3.38699-1.693495-6.209482-2.257994-9.596472-19.757442 2.822492-40.079383 2.822492-58.707828 9.031973-22.579934 7.338479-42.901874 20.32194-64.352811 31.04741-38.385888 19.192944-48.546858 37.821389-38.385888 80.723263 7.338479 33.305402 37.821389 24.273429 55.885337 30.482911 9.596472-31.047409 11.289967-65.481808 28.789415-88.061742zM644.657111 481.517089l1.128997 21.450937c33.305402 0.564498 59.272326-14.676957 83.545755-41.772877-1.128997-2.822492-2.822492-6.209482-3.951488-9.031974-11.289967 4.515987-23.708931 7.338479-32.740904 14.112459-15.241455 11.854465-29.918412 16.93495-47.98236 15.241455zM528.370452 294.668137c-25.402426 5.644983-35.563396 20.886439-34.434399 46.288864 0.564498 20.886439 0.564498 41.772878 0.564498 62.659317l67.175303 14.676957c0-9.031974 0.564498-19.192944 1.693496-32.176406 1.128997-21.450937 9.031974-33.869901 30.48291-40.079383 32.176406-9.596472 63.788313-22.015436 97.658214-33.869901-42.337376-36.127894-84.110254-57.014333-135.479603-27.660419-7.902977 5.644983-18.063947 8.467475-27.660419 10.160971z" p-id="20658"></path><path d="M620.948181 366.923925c-8.467475 3.951488-13.54796 14.112459-19.757442 21.450937 7.902977 5.644983 14.676957 14.112459 23.144432 16.370452 36.692393 10.725469 73.949283 19.192944 110.641676 29.353914 16.93495 4.515987 27.095921 12.983462 30.48291 33.869901 3.38699 21.450937 16.93495 40.643881 26.531423 60.965821 2.822492 0.564498 6.209482 1.128997 9.031973 1.693495 3.38699-55.885336 37.256891-68.3043 85.239251-60.965821 0-3.951488 0-7.902977-0.564499-11.854465-23.144432-11.289967-45.724366-25.966924-70.562293-32.740904-18.063947-5.080485-27.660419-11.289967-34.998898-29.353914-22.579934-53.627343-51.933848-66.046307-106.690187-47.417861-17.499449 6.209482-36.127894 10.725469-52.498346 18.628445zM394.584344 361.84344c2.822492 2.257993 6.77398 5.080485 10.16097 5.644983 19.757442 3.951488 39.514884 6.77398 62.094818 10.725469 0-20.32194 1.128997-36.127894-0.564498-51.36935-2.822492-27.660419 10.16097-41.772878 34.998897-48.546857C524.983462 270.959206 547.563396 262.491731 575.788313 252.895259c-10.725469-5.080485-15.241455-7.902977-20.32194-10.16097-53.062845-19.192944-102.174201 2.257993-150.721059 18.063947-23.708931 7.902977-29.353914 84.674752-10.16097 101.045204z" p-id="20659"></path><path d="M758.685777 349.424476l7.338479 4.515987c4.515987 4.515987 8.467475 11.854465 8.467475 11.854465 11.854465 17.499449 16.370452 33.305402 46.853363 40.643881 31.047409 7.338479 78.46527 45.724366 78.46527 45.724366l1.693495 25.402426-15.241455 11.854465c-72.820287-20.886439-71.69129 64.352811-71.69129 64.352812l-26.531423-6.773981c-15.241455-13.54796-30.482911-50.804851-30.48291-50.804851-4.515987-36.692393-13.54796-24.837927-13.547961-24.837927-63.223815 64.91731-107.819184 48.546858-107.819184 48.546858-3.38699 25.402426-34.998897 45.159868-34.998897 45.159868 7.902977 13.54796 5.644983 58.14333 5.644983 58.143329 2.822492 28.224917-63.788313 72.820287-63.788313 72.820287-46.853363 37.821389-96.529217 28.789416-96.529217 28.789416l-241.605292-67.739802c-53.627343-14.112459-40.079383-92.577729-40.079383-92.577729 0-23.708931-11.289967-28.789416-11.289967-28.789415-26.531422-22.015436-27.660419-90.319735-1.693495-107.254686C232.00882 361.278942 341.521499 347.730981 373.697905 345.472988v-15.805954C158.059537 356.762955 0 447.08269 0 554.901874c0 129.270121 229.186329 234.266814 512 234.266814s512-104.996692 512-234.266814c0-88.62624-107.254686-165.398015-265.314223-205.477398z" p-id="20660"></path></svg>