<?xml version="1.0" standalone="no"?><!DOCTYPE svg PUBLIC "-//W3C//DTD SVG 1.1//EN" "http://www.w3.org/Graphics/SVG/1.1/DTD/svg11.dtd"><svg t="1753254716977" class="icon" viewBox="0 0 1024 1024" version="1.1" xmlns="http://www.w3.org/2000/svg" p-id="27941" xmlns:xlink="http://www.w3.org/1999/xlink" width="200" height="200"><path d="M457.1 152.8c1.3 0 2.7 0.3 3.9 0.9l54.4 26.1 0.2 53.3c0 0.8-0.1 1.6-0.4 2.4l392.9 293.9c4.3 3 9.3 9.9 10.4 14.7 1.9 2.8 3 6.2 3 9.8v83h0.4v104.9h-0.4v112.1c0 9.6-7.9 17.5-17.7 17.5h-784c-9.8 0-17.7-7.8-17.7-17.5l-0.1-371.6c48-77.3 118.4-154.7 208.2-227.4 43-34.8 90.5-68.6 142.2-100.8 1.4-0.9 3.1-1.3 4.7-1.3m0.1-40c-9.2 0-18.1 2.6-25.9 7.4-52.3 32.6-101.5 67.5-146.2 103.6C192.2 299 119.2 378.9 68 461.2l-6 9.7v11.4l0.2 371.5c0 31.7 25.9 57.4 57.7 57.4H904c15.3 0 29.7-5.9 40.6-16.7 11-10.9 17.1-25.4 17.1-40.8v-72.1l0.4-40V596.8h-0.3v-43c0-9.4-2.3-18.5-6.6-26.7-4.6-11.5-13.3-22.9-23.2-30.1L555.5 215.6l-0.1-35.9-0.1-25.1-22.6-10.9-54.4-26.1c-6.5-3.2-13.8-4.8-21.1-4.8z" fill="#6B0A0C" p-id="27942"></path><path d="M119.7 549.3h795.6c8.6 0-0.1-15-7.1-20L506.7 229c-217 62-339 242.9-387 320.3z" fill="#FF5A78" p-id="27943"></path><path d="M119.7 554.3h-9l4.7-7.6C221.2 376.5 352.3 268 505.3 224.3l2.4-0.7 403.4 301.8c5.4 3.8 14.7 15.6 12.3 23.4-1.1 3.4-4.1 5.5-8.1 5.5H119.7z m9-10h784.7c-1.1-3.1-4.7-8.4-8.2-10.9L505.7 234.5c-147.2 42.8-274 147-377 309.8z" fill="#FF5A78" p-id="27944"></path><path d="M310.2 254.9C220.5 327.6 150 405 102 482.3l82.7-0.2c47.3-69.7 112.4-139 193.4-204.6 41.7-33.8 87.6-66.5 137.3-97.8L461 153.6c-2.8-1.3-6.1-1.1-8.7 0.5-51.5 32.2-99 65.9-142.1 100.8z" fill="#FF5A78" p-id="27945"></path><path d="M378.1 277.5C297.2 343 232 412.4 184.7 482.1l0.2 58c47.3-69.7 112.4-139 193.4-204.6 40.5-32.8 85.1-64.7 133.3-95.2 2.5-1.6 4.1-4.4 4.1-7.3l-0.2-53.3c-49.9 31.3-95.7 64.1-137.4 97.8z" fill="#E2375C" p-id="27946"></path><path d="M110.8 482.3l65-0.2c4.9 0 8.8 3.9 8.9 8.7l0.1 45.7-0.2 3.8 719.2-3.9c9.8-0.1 17.8 7.8 17.8 17.5v299.9c0 9.6-7.9 17.5-17.7 17.5H119.8c-9.8 0-17.7-7.8-17.7-17.5L102 491c0-4.8 3.9-8.7 8.8-8.7z" fill="#FFEB9A" p-id="27947"></path><path d="M175.9 508.3c4.9 0 8.8 3.9 8.8 8.7l0.1 19.5-0.2 3.8 719.2-3.9h0.1c9.8 0 17.7 7.8 17.7 17.5v299.9c0 9.7-7.9 17.5-17.7 17.5H119.8c-9.8 0-17.7-7.8-17.7-17.5l-0.1-336.6c0-4.8 3.9-8.7 8.8-8.7l65.1-0.2m0-40l-65.2 0.2c-26.9 0.1-48.7 21.9-48.7 48.8l0.2 336.5c0 31.7 25.9 57.4 57.7 57.4H904c15.3 0 29.7-5.9 40.6-16.7 11-10.9 17.1-25.4 17.1-40.8V553.8c0-31.7-25.9-57.5-57.7-57.5L221.7 500c-7-18.4-24.9-31.7-45.8-31.7z" fill="#6B0A0C" p-id="27948"></path><path d="M241.8 705.5H922v92.3H249.8c-4.4 0-8-5.9-8-13.2v-79.1z" fill="#FF5A78" p-id="27949"></path><path d="M249.8 642.9H922v64.6H241.8v-55.4c0-5 3.5-9.2 8-9.2z" fill="#6B0A0C" p-id="27950"></path><path d="M611.6 430.6c59 0 107.2-47.6 107.2-105.9 0-58.4-48.1-106-107.2-106-59 0-107.2 47.6-107.2 106 0 58.3 48.1 105.9 107.2 105.9z" fill="#F44240" p-id="27951"></path><path d="M611.6 430.6c59 0 107.2-47.6 107.2-105.9 0-14.6-4-62.8-8.4-41.2 8.4 41.2-108.2 175.4-205.9 41.2 0 34.5 16.8 65.2 42.7 84.6 17.9 13.3 40.2 21.3 64.4 21.3z" fill="#D82525" p-id="27952"></path><path d="M611.6 450.6c-70.1 0-127.2-56.5-127.2-125.9 0-69.5 57-126 127.2-126 70.1 0 127.2 56.5 127.2 126-0.1 69.4-57.1 125.9-127.2 125.9z m0-211.9c-48.1 0-87.2 38.6-87.2 86s39.1 85.9 87.2 85.9 87.2-38.6 87.2-85.9-39.2-86-87.2-86z" fill="#6B0A0C" p-id="27953"></path><path d="M579.6 345.6c22.6 0 41-18.2 41-40.5s-18.4-40.5-41-40.5-41 18.2-41 40.5 18.5 40.5 41 40.5z" fill="#FFFFFF" p-id="27954"></path><path d="M627.9 279.9c-2 0-4-0.4-5.9-1.3-6.8-3.3-9.6-11.3-6.3-18l58.4-107.9c3.3-6.7 11.4-9.5 18.2-6.3 6.8 3.3 9.6 11.3 6.3 18l-58.4 107.9c-2.3 4.8-7.2 7.6-12.3 7.6z" fill="#6B0A0C" p-id="27955"></path><path d="M607.2 586.8a27.8 27.5 0 1 0 55.6 0 27.8 27.5 0 1 0-55.6 0Z" fill="#FFD05A" p-id="27956"></path><path d="M452.6 608.7a17.7 17.5 0 1 0 35.4 0 17.7 17.5 0 1 0-35.4 0Z" fill="#FFD05A" p-id="27957"></path><path d="M832.5 598.7a17.7 17.5 0 1 0 35.4 0 17.7 17.5 0 1 0-35.4 0Z" fill="#FFD05A" p-id="27958"></path><path d="M753.7 835.8a17.7 17.5 0 1 0 35.4 0 17.7 17.5 0 1 0-35.4 0Z" fill="#FFD05A" p-id="27959"></path></svg>