<?xml version="1.0" standalone="no"?><!DOCTYPE svg PUBLIC "-//W3C//DTD SVG 1.1//EN" "http://www.w3.org/Graphics/SVG/1.1/DTD/svg11.dtd"><svg t="1753255313841" class="icon" viewBox="0 0 1026 1024" version="1.1" xmlns="http://www.w3.org/2000/svg" p-id="31252" xmlns:xlink="http://www.w3.org/1999/xlink" width="200.390625" height="200"><path d="M3.584 351.3344c7.55712-51.78368 45.95712-72.23296 89.472-85.73952 86.52288-26.85952 176.01024-30.42304 265.40032-26.52672 76.6464 3.33824 153.0368 12.5184 229.51936 19.27168 3.1232 0.27648 6.10816 2.16576 8.56064 6.3488-18.57024-1.9456-37.10464-5.02272-55.71584-5.632-88.76544-2.91328-177.5616-7.23968-266.32704-6.89664-60.02688 0.23552-119.99744 7.60832-177.47968 27.4688a285.05088 285.05088 0 0 0-24.77056 9.9328c-76.42624 34.7136-56.61696 106.17856-15.5136 139.56096 33.27488 27.02336 73.50784 39.70048 114.51904 46.38208 48.0512 7.82336 97.024 9.85088 145.4592 15.5136 16.94208 1.98656 33.48992 7.30624 50.21696 11.10528l-1.0752 6.8096c-23.40864 0-46.84288 0.7168-70.2208-0.13824-62.0032-2.26816-123.52-8.5504-182.59456-29.0048-40.21248-13.9264-76.81024-33.62304-96.59392-73.984C10.32192 393.3184 7.76704 379.0848 3.584 365.65504V351.3344z m245.0688 67.79904l103.8848-10.77248-0.1024-2.63168-211.22048-23.18848 0.18432-4.7872 91.71456-16.59904 0.256-2.5088-54.56384-11.28448 0.29696-2.46784h93.82912c-2.99008 16.7424 4.43904 28.27776 19.49696 33.55648 16.09728 5.64736 31.52384 3.5328 44.8256-8.77056 4.51072-4.1728 10.18368-9.30304 15.7184-9.82528 60.93824-5.76 121.87136-12.8512 182.97344-15.17568 47.232-1.792 105.32864 47.8208 112.61952 91.72992 1.8432 11.1104-1.09568 23.0144-1.75104 33.26976 30.2848-23.92064 17.69984-66.09408-40.80128-130.36544 32.2816 3.8912 69.72416 43.61216 77.93664 82.688 13.1072 62.34624-25.05216 110.336-92.63104 119.63392-45.05088 6.20032-88.82176 1.28-129.60256-16.21504-72.448-31.0784-143.32416-65.81248-214.85568-99.0208l1.792-7.2704z m121.05216 20.54656c93.21472 58.42944 180.75136 76.2112 239.31392 31.87712-86.48704 23.08096-163.4816-0.30208-239.31392-31.87712z m373.9648-110.44864c44.2112 0.68608 63.01696 27.63776 76.17536 59.5968 19.38944 47.0784 17.2544 93.5936-18.26816 131.90144-42.47552 45.79328-94.9248 36.1472-147.3024 18.87232 59.61216-46.3104 68.42368-125.5936 2.85184-192.27136 73.07776-17.1008 106.32704-0.08704 139.63264 71.43424 3.6864-29.51168-20.81792-72.91904-53.08416-89.53344z m80.93696 39.59296c73.51296 40.89344 108.86656 77.312 89.48736 148.09088 31.0784-48.52736 30.48448-85.29408-32-140.0832 32.8192 15.36512 63.36 34.17088 79.7696 68.28544 4.352 9.04192 3.26144 22.272 0.88064 32.7168-13.2608 58.07616-83.64032 113.44896-143.17568 113.83808-25.7792 0.16896-43.97056-7.01952-68.89472-27.70944 41.728-11.55584 72.52992-35.06688 87.18336-76.37504 14.21312-40.07424 7.3216-78.336-13.25056-118.76352z m108.19584 423.88992c-55.93088 40.8064-112.25088 69.82656-180.1216 63.31904-35.34336-3.38944-64.16384-21.26336-83.85536-51.49696-16.28672-25.00096-11.06944-43.22304 15.37536-56.3968 12.0576-6.00576 24.49408-11.25888 36.37248-16.68096-8.72448 14.15168-21.0432 26.9824-24.71936 41.94304-4.3008 17.47456 5.99552 33.00864 24.58112 45.23008-2.5088-6.41024-3.8912-9.89696-5.24288-13.39904-6.3744-16.4608-5.88288-31.5904 9.32864-43.22816 22.18496-16.96256 44.58496-33.64352 67.98336-51.26656 29.79328 54.7072 76.3904 79.04256 140.29824 81.97632z m-136.54016-189.2096c86.28736 4.37248 140.15488-35.02592 178.92864-105.12896 10.65472 37.42208 20.84864 72.7552 15.84128 109.29152-1.792 13.0304-14.6176 24.54016-21.00736 34.54976 12.8768-1.04448 32.6912-15.62624 35.64032-34.41664 2.96448-18.88256 0.65024-38.59456 0.65024-56.30464 32.32768 34.39616 22.82496 93.9008-21.2736 114.57536-51.35872 24.08448-103.09632 19.35872-150.1696-9.46176-16.26624-9.95328-24.53504-32.96768-38.60992-53.10464z m20.6592 55.48544c33.44384 36.4544 105.9584 50.08384 180.92032 23.11168-10.5728 30.6176-27.20256 54.27712-59.75552 69.85216 32.62464-0.768 48.05632-21.68832 66.21184-39.3472-2.4576 26.48576-29.89568 53.92896-59.62752 60.6208-45.42976 10.2144-104.58624-15.3856-129.1008-54.8608-12.39552-19.95776-12.70272-38.7584 1.35168-59.37664z m-181.70368 114.9696c12.544 23.9616 23.24992 44.43648 34.51392 65.96608-8.51456 1.0496-19.92704 2.304-31.28832 3.8912-67.05152 9.34912-129.28512-3.26144-184.80128-42.624-9.79968-6.94784-15.7184-19.37408-23.424-29.27104 12.35456-4.10112 24.89856-12.17024 37.0176-11.58656 42.8032 2.06336 85.4528 7.18848 128.17408 10.94656 14.80704 1.30048 29.66528 2.00704 39.808 2.67776z m-168.07424-1.50528l-0.39936 6.00064 164.48 22.15424 2.90304-6.8096c-4.1728-3.2256-8.13568-8.91904-12.55424-9.30304-51.43552-4.48-102.94272-8.15616-154.42944-12.04224z m204.59008-544.10752c-32.91136-3.4816-65.82784-6.912-98.73408-10.46016-100.91008-10.86464-202.1376-15.33952-303.2064-5.76-47.616 4.5056-95.22176 13.82912-141.50144 26.0096-27.85792 7.33184-53.1712 24.36096-79.62624 37.03296l-3.46112-4.70016c13.056-10.16832 25.15456-22.00064 39.3472-30.19264 43.06944-24.86272 91.1872-33.51552 139.7248-39.38304 127.03744-15.36512 253.27104-5.53472 379.1616 13.23008 19.96288 2.97472 39.99232 5.4784 59.9552 8.43264 3.08224 0.45568 5.96992 2.19136 8.94976 3.33312l-0.6144 2.4576zM45.952 319.17568c1.49504 53.248 28.6464 86.26688 73.57952 106.71616 41.65632 18.95936 86.1184 26.3168 130.9696 32.8704 19.84512 2.90816 39.14752 9.5488 58.69568 14.4896l-1.5872 9.0368c-30.14656-3.0208-60.48768-4.78208-90.3936-9.36448-46.01344-7.05024-91.0336-18.0992-130.47296-44.7488-26.69056-18.048-45.08672-41.91232-52.096-73.984-3.88608-17.79712-4.27008-17.7152 11.30496-35.0208z m664.01792 538.624c-65.97632 22.58944-132.06016 29.40416-199.5008 19.87072-1.1776-0.16384-2.59584 0.05632-3.5072-0.52224-6.89664-4.3776-13.696-8.9088-20.52608-13.39392 9.28768-5.07904 20.64384-16.48128 27.53536-14.22848 56.7808 18.57024 113.3056 8.29952 170.10688 2.70848 8.3712-0.8192 17.2544 3.584 25.89184 5.57056z m-265.63072-114.75968c10.30656-49.12128 20.51584-98.27328 30.95552-147.36896 6.4-30.06464 36.69504-41.51296 63.20128-39.4496 15.73376 1.2288 31.6416 0.22528 48.22528 4.37248-15.45216 4.23936-30.72512 9.3696-46.39744 12.52352-31.50848 6.33344-48.8448 23.4496-54.66112 56.38656-5.83168 33.05984-17.06496 65.18784-26.4192 97.5872-1.83808 6.36928-5.87776 12.10368-8.89856 18.13504l-6.00576-2.18624z m58.01984-189.26592c-24.35072 6.92224-34.83648 24.20224-43.7248 42.59328-13.68064 28.288-26.44992 57.01632-40.26368 85.23776-4.992 10.19904-11.8784 19.47648-17.90464 29.17376l-4.9664-2.31936c4.096-13.34272 7.3216-27.0336 12.4672-39.96672 13.52704-33.98656 25.96864-68.61824 42.50624-101.13024 13.7216-26.96704 18.62144-26.56768 51.88608-13.58848z m-45.14816-11.6736c-5.13024 2.80576-8.02816 5.65248-11.12576 5.888-29.22496 2.18624-46.60736 21.36064-62.3104 42.9056a5951.57504 5951.57504 0 0 0-54.1184 75.264c-4.00896 5.6832-6.6048 12.3648-9.856 18.5856l-8.54016-7.48544c9.79968-17.34144 18.88768-35.13856 29.56288-51.92192 15.29856-24.04864 30.83264-48.05632 47.97952-70.78912 17.47968-23.168 38.74816-26.68544 68.4032-12.44672z m-175.93344 87.82336c27.00288-32.8192 53.2736-66.27328 81.3312-98.16576 13.42464-15.2576 30.8736-22.61504 45.85472-9.48224-15.19104 11.81184-32.6656 23.36256-47.616 37.56032-17.62304 16.72192-32.69632 36.10112-49.62816 53.60128-7.63904 7.88992-17.10592 14.01344-25.74336 20.9408l-4.1984-4.4544z m131.69664-55.66976c-6.43072 56.59136-44.82048 97.1008-71.84896 143.32928 16.44544-51.55328 41.45664-98.79552 71.84896-143.32928z m268.01664-10.99776l-50.97984 91.5456-3.87584-0.49152c0.77824-8.15616-0.13312-16.9472 2.6624-24.34048 7.2704-19.2512 16.0768-37.9392 24.448-56.76544 6.12352-13.76768 15.1296-19.46624 27.74528-9.94816z m-15.5136 90.89024c-5.07904-32.0768 7.85408-58.65472 24.1152-83.56352 2.83136-4.34176 13.44512-3.6096 23.48032-5.90848l-47.60064 89.472z m94.22336-67.38944l-64.0768 57.79968c-1.0496-0.5632-2.10432-1.11616-3.15904-1.67424 2.34496-6.08256 3.44064-13.13792 7.27552-18.05824 10.53696-13.50656 22.48192-25.90208 33.3824-39.1424 9.70752-11.79648 18.1248-10.06592 26.57792 1.0752z m29.66016 12.032l-65.36704 57.97376-3.75808-3.54304c9.25696-25.09824 27.27936-43.90912 48.52224-59.5456 3.328-2.4576 12.41088 2.89792 20.60288 5.12z m-505.53856-249.2928l23.79264 3.4304-2.18624-17.98656c7.13728 3.48672 16.78336 6.33344 23.45472 12.43136 2.47808 2.26816 0.07168 14.11584-3.74272 18.17088-8.56064 9.088-20.82304 10.42944-30.74048 2.65216-5.46816-4.28544-7.5008-12.9536-10.57792-18.69824z m467.6096 332.78464l41.728-21.76c2.25792 19.79392-11.35104 27.91424-39.97696 26.496l-1.75104-4.736z m54.23104-49.32608c-4.97152 20.25472-19.6352 24.62208-47.12448 14.26944l47.12448-14.26944zM341.4528 343.23968l53.82144-4.85376 0.896 3.95776c-16.69632 3.9424-33.37728 7.9872-50.176 11.4432-0.60416 0.12288-2.39104-5.46304-4.54144-10.5472z m28.25216 96.44032c75.83232 31.57504 152.82688 54.95808 239.31392 31.87712-58.56256 44.3392-146.0992 26.55232-239.31392-31.87712z m97.4336 332.7744c51.49184 3.8912 102.99904 7.56224 154.43456 12.04224 4.42368 0.384 8.38144 6.07232 12.55424 9.29792l-2.89792 6.81472-164.48512-22.15424 0.39936-6.00064z" fill="#272636" p-id="31253"></path></svg>