<?xml version="1.0" standalone="no"?><!DOCTYPE svg PUBLIC "-//W3C//DTD SVG 1.1//EN" "http://www.w3.org/Graphics/SVG/1.1/DTD/svg11.dtd"><svg t="1753254601418" class="icon" viewBox="0 0 1024 1024" version="1.1" xmlns="http://www.w3.org/2000/svg" p-id="19068" xmlns:xlink="http://www.w3.org/1999/xlink" width="200" height="200"><path d="M888.207622 474.592975a27.695528 27.695528 0 0 0-10.476134-21.458013c-1.288444-2.82976-2.74547-5.599313-4.08208-8.272534a160.513647 160.513647 0 0 0-8.693988-15.184374 188.281424 188.281424 0 0 0-22.565834-28.538436 179.888475 179.888475 0 0 0-58.353273-40.459554c-9.922224-4.23862-21.831301-8.501323-32.03048-6.141182a77.71606 77.71606 0 0 0-28.996014-2.492597 22.228672 22.228672 0 0 0-13.402227 6.466303 15.015793 15.015793 0 0 0-7.69454-2.022977c-8.3207 0.204706-15.894825 2.974259-23.541199 6.020767a105.471795 105.471795 0 0 0-14.883336 7.032255 21.060643 21.060643 0 0 0-12.788109-1.794188c-19.651783 2.769553-38.532908 9.633227-56.137631 18.724585-16.063406 8.356825-32.415809 18.953374-44.445301 32.668681-13.438352 15.364997-25.479886 38.773739-15.316832 58.919226 4.912946 9.753642 14.83517 15.23254 25.010266 18.002093 9.946307 2.697304 20.145486 4.635991 30.188126 6.923882l4.756406 1.071696h-62.206564a71.04505 71.04505 0 0 0 0.288996 15.220499l27.177742 214.339303c3.14284 24.877809 27.117534 44.445302 53.38012 44.445302h186.908689c26.262585 0 50.237279-19.567493 53.38012-44.445302l27.177742-214.339303a71.04505 71.04505 0 0 0 0.288997-15.220499h-1.204154a18.736627 18.736627 0 0 0 2.914051-10.006514c0.746575-1.276403 1.444984-2.576888 2.083186-3.913499a16.424652 16.424652 0 0 0 1.613565-6.875716 23.348534 23.348534 0 0 0 1.589483-8.657862z m-435.746986 287.79266H212.545115l-44.625925-453.989911h329.179412z m0 0" fill="#F8E868" p-id="19069"></path><path d="M468.499959 599.379391L485.273816 428.570232H179.731935l16.858147 170.809159z m0 0" fill="#FFA621" p-id="19070"></path><path d="M463.599055 438.13121H218.854878a6.743259 6.743259 0 1 1 0-13.486518H463.599055a6.743259 6.743259 0 0 1 0 13.486518z m-15.184375 170.8212H201.647526a6.743259 6.743259 0 0 1 0-13.486518h246.767154a6.743259 6.743259 0 1 1 0 13.486518z m329.384118 163.198909H590.890109a62.375146 62.375146 0 0 1-39.652771-14.449841c-11.439457-9.452604-18.676419-22.204588-20.470607-35.895812l-6.538553-51.525724a6.743259 6.743259 0 1 1 13.378144-1.697856l6.574677 51.50164c2.697304 21.265349 23.637531 38.532908 46.70911 38.532909h186.896648c23.059537 0 43.999765-17.291643 46.70911-38.532909l27.1657-214.339303a65.180823 65.180823 0 0 0 0.264914-13.787556 6.743259 6.743259 0 0 1 13.438352-1.204154 77.920766 77.920766 0 0 1-0.31308 16.665483l-27.177742 214.339304c-1.733981 13.679182-8.995026 26.491375-20.470608 35.895812a62.495561 62.495561 0 0 1-39.652771 14.449841z m-250.861275-127.640259a6.743259 6.743259 0 0 1-6.683052-5.900352l-4.816613-38.364327a6.731217 6.731217 0 1 1 13.366103-1.697856l4.816613 38.364327a6.719176 6.719176 0 0 1-5.840144 7.538 6.454262 6.454262 0 0 1-0.842907 0.060208z m-10.223262-80.678277a6.767342 6.767342 0 0 1-6.695093-5.900352l-6.394055-50.441985a77.896683 77.896683 0 0 1-0.31308-16.665483 6.743259 6.743259 0 1 1 13.438352 1.204153 64.277708 64.277708 0 0 0 0.252872 13.775515l6.394055 50.441985a6.646927 6.646927 0 0 1-1.348652 4.973154 6.731217 6.731217 0 0 1-4.479451 2.552805 5.226026 5.226026 0 0 1-0.854948 0.072249z m0 0" fill="#7C4924" p-id="19071"></path><path d="M684.344454 523.54181c-74.561178 0-140.512659-8.031703-168.003481-20.470607a6.743259 6.743259 0 1 1 5.551147-12.282365c25.491927 11.511706 90.757041 19.266454 162.440292 19.266454 41.362669 0 81.497101-2.564847 113.021837-7.22492 43.349522-6.394054 54.259152-14.148802 56.595209-16.376486a6.683051 6.683051 0 0 1 4.816614-1.866438 6.743259 6.743259 0 0 1 4.503534 11.62008c-19.675866 18.772751-106.543492 27.32224-178.925152 27.322241z m0 0" fill="#7C4924" p-id="19072"></path><path d="M156.828937 782.808076c2.504639 36.305225 29.706464 65.15674 62.615977 65.15674h623.053046c32.897471 0 60.099296-28.899681 62.615976-65.15674z m0 0" fill="#FF686E" p-id="19073"></path><path d="M809.973777 837.127436h-317.294418a6.743259 6.743259 0 1 1 0-13.486518h317.294418c26.900787 0 49.936241-22.168464 55.017768-51.670222h-733.088583c5.069486 29.489716 28.10494 51.670222 55.017768 51.670222h142.55972a6.743259 6.743259 0 1 1 0 13.486518H186.92073c-36.124602 0-66.565599-31.380237-69.335152-71.430379a6.743259 6.743259 0 0 1 6.731218-7.224921h748.260915a6.791425 6.791425 0 0 1 4.937029 2.143393 6.707134 6.707134 0 0 1 1.794189 5.069486c-2.769553 40.050142-33.222592 71.430379-69.335152 71.430379z m0 0" fill="#7C4924" p-id="19074"></path><path d="M438.697162 837.127436h-53.982196a6.743259 6.743259 0 0 1 0-13.486518h53.982196a6.743259 6.743259 0 0 1 0 13.486518z m0 0" fill="#7C4924" p-id="19075"></path><path d="M495.918531 257.953739l-16.219946-55.848634H279.098672l-13.173438 28.153106h-39.387857L219.155917 207.451546l-4.08208-5.358483h-41.784123l-16.219946 55.848634a11.608039 11.608039 0 0 0-9.765684 11.415374v27.466739a11.595997 11.595997 0 0 0 11.571914 11.559873h335.236303a11.595997 11.595997 0 0 0 11.559873-11.559873v-27.466739a11.595997 11.595997 0 0 0-9.765684-11.403332z m0 0" fill="#FFA621" p-id="19076"></path><path d="M431.869613 769.17706H191.954092a6.755301 6.755301 0 0 1-6.719176-6.020767l-21.132892-215.037712a6.755301 6.755301 0 0 1 10.99392-5.876269 6.851633 6.851633 0 0 1 2.408307 4.5517l20.470608 208.89653h227.777655l44.035889-447.945061a6.743259 6.743259 0 0 1 6.707134-6.093016h3.034467a4.816614 4.816614 0 0 0 4.816613-4.816613v-27.478781a4.816614 4.816614 0 0 0-3.805124-4.720281 6.755301 6.755301 0 0 1-4.985195-4.443326L459.986594 213.652936H278.701302L268.526206 234.340291a6.731217 6.731217 0 0 1-6.020767 3.756958h-35.980104a6.743259 6.743259 0 0 1-6.080974-3.817166l-9.910183-20.627147h-47.238937l-15.653994 46.685027a6.743259 6.743259 0 0 1-4.635991 4.359035 4.816614 4.816614 0 0 0-3.61246 4.648032v27.466739a4.816614 4.816614 0 0 0 4.816614 4.816613h3.034466a6.755301 6.755301 0 0 1 6.707135 6.093016l11.800703 119.957761a6.743259 6.743259 0 0 1-13.42631 1.312527l-11.22271-114.1417a18.339256 18.339256 0 0 1-15.196416-18.0623v-27.442656a18.315173 18.315173 0 0 1 9.898141-16.231988l16.17178-48.346758a6.767342 6.767342 0 0 1 6.406096-4.599866h56.330296a6.755301 6.755301 0 0 1 6.020767 3.817166l9.910182 20.627148h27.47878l10.403886-20.687356a6.719176 6.719176 0 0 1 6.020767-3.756958h190.256235a6.743259 6.743259 0 0 1 6.394054 4.599866l16.075448 48.021637a18.423547 18.423547 0 0 1 10.524301 16.56915v27.466739a18.327215 18.327215 0 0 1-15.184374 18.062301l-44.023848 448.209974a6.767342 6.767342 0 0 1-6.719176 6.020767z m0 0" fill="#7C4924" p-id="19077"></path><path d="M167.004033 515.510107a6.755301 6.755301 0 0 1-6.707134-6.093016L156.53994 471.666882a6.743259 6.743259 0 1 1 13.414269-1.324568l3.769 37.810416a6.755301 6.755301 0 0 1-6.020767 7.369419h-0.662284z m355.056669-23.264243c-13.101189-6.442221-14.064512-24.468397-11.078212-37.039759 2.926093-12.306448 10.018556-23.059537 18.640295-32.150895 19.711991-20.735521 46.757276-34.643493 73.790519-43.192982 13.486518-4.262703 27.454697-7.429626 41.6035-7.706582 9.284023-0.180623 9.308106-14.630464 0-14.44984-30.549371 0.590035-61.652653 11.77662-88.023613 26.659956-25.949506 14.642505-53.091123 37.027717-60.063171 67.432589-4.250661 18.592128-1.204153 43.542187 17.833512 52.874376 8.332741 4.08208 15.653994-8.429074 7.29717-12.475029z m0 0" fill="#7C4924" p-id="19078"></path><path d="M658.671903 507.430238c-21.470055-24.1794-29.694423-57.414034-28.550476-89.1796 0.577994-16.003199 4.720281-30.910617 15.834617-42.843778 9.404438-10.102847 22.228672-17.291643 36.052352-18.857042 3.877374-0.445537 7.22492-3.010383 7.22492-7.22492 0-3.61246-3.323463-7.670457-7.22492-7.22492a74.65751 74.65751 0 0 0-60.460541 45.107586c-5.864227 14.172885-6.550594 30.22425-5.755854 45.372499a154.203883 154.203883 0 0 0 7.959454 42.554781 125.76178 125.76178 0 0 0 24.64902 42.518656c6.177307 6.972048 16.376486-3.275297 10.211221-10.223262z m0 0" fill="#7C4924" p-id="19079"></path><path d="M679.443549 358.404215c7.477793 54.56019 41.121838 104.17131 87.457661 133.45632a182.405155 182.405155 0 0 0 42.061078 19.495243c8.87461 2.82976 12.679735-11.114336 3.841249-13.932055-48.455132-15.413163-88.758146-53.645033-108.084808-100.546808a172.78397 172.78397 0 0 1-11.343125-42.301908c-0.517786-3.853291-5.478898-6.020767-8.886652-5.045403-4.166371 1.204153-5.587272 4.973153-5.045403 8.874611z m0 0" fill="#7C4924" p-id="19080"></path><path d="M684.368537 359.066499c16.256071-7.69454 35.462317-4.190454 52.055551 0.493703a178.455532 178.455532 0 0 1 43.710768 19.049706 183.46481 183.46481 0 0 1 65.746775 68.130999c6.996131 12.703818 18.062301 34.402662 6.707134 47.720599-6.020767 7.032256 4.166371 17.303684 10.223262 10.223262 12.944649-15.172333 9.320147-35.474359 1.938687-52.380672a183.031315 183.031315 0 0 0-29.75463-46.143158 197.962817 197.962817 0 0 0-89.914133-59.003516c-22.011924-6.887757-46.432155-10.680841-68.010584-0.46962-8.429074 3.961665-1.071697 16.412611 7.29717 12.462988z m0 0" fill="#7C4924" p-id="19081"></path><path d="M674.121191 355.959783c-8.525406-1.758064-14.20901-9.922224-17.375933-18.062301-7.29717-18.712544-5.539106-40.941215 5.611355-57.678947s31.729442-26.973036 51.670222-24.661061a51.670222 51.670222 0 0 1 39.652771 75.668999c-4.178412 7.802914-11.331083 14.967627-20.181611 15.377038" fill="#FF686E" p-id="19082"></path><path d="M605.508531 734.71419a6.743259 6.743259 0 0 1-6.695092-6.020767L580.522349 557.065441a6.743259 6.743259 0 1 1 13.402227-1.420901L612.227707 727.308647a6.767342 6.767342 0 0 1-6.020767 7.417584h-0.722492z m141.427816-0.397371a6.755301 6.755301 0 0 1-6.683051-7.69454l24.480438-170.845283a6.743259 6.743259 0 0 1 13.354061 1.902563L753.607357 728.5128a6.743259 6.743259 0 0 1-6.67101 5.779936z m-68.576536 0.879032a6.743259 6.743259 0 0 1-6.695092-6.791425l1.204153-172.591305a6.743259 6.743259 0 0 1 13.486518 0.096332L685.163278 728.5128a6.743259 6.743259 0 0 1-6.743259 6.695093z m0 0" fill="#FFA621" p-id="19083"></path><path d="M424.54836 314.48874H147.316126a6.755301 6.755301 0 0 1 0-13.498559h277.232234a6.755301 6.755301 0 0 1 0 13.498559z m0 0" fill="#7C4924" p-id="19084"></path><path d="M219.155917 453.436v65.265114c0 9.296064 14.449841 9.320147 14.44984 0v-65.265114c0-9.296064-14.449841-9.308106-14.44984 0z m7.22492 112.672633c9.296064 0 9.320147-14.449841 0-14.449841s-9.308106 14.449841 0 14.449841z m0 0" fill="#FFFFFF" p-id="19085"></path></svg>